solid OpenSCAD_Model
  facet normal -1 0 0
    outer loop
      vertex 28 16 3
      vertex 28 47 8
      vertex 28 47 3
    endloop
  endfacet
  facet normal -1 -0 0
    outer loop
      vertex 28 47 8
      vertex 28 16 3
      vertex 28 16 8
    endloop
  endfacet
  facet normal -1 0 0
    outer loop
      vertex 28 3 3
      vertex 28 6 8
      vertex 28 6 3
    endloop
  endfacet
  facet normal -1 -0 0
    outer loop
      vertex 28 6 8
      vertex 28 3 3
      vertex 28 3 8
    endloop
  endfacet
  facet normal 0 0 1
    outer loop
      vertex 31 50 8
      vertex 28 47 8
      vertex 31 16 8
    endloop
  endfacet
  facet normal 0 0 1
    outer loop
      vertex 31 50 8
      vertex 3 47 8
      vertex 28 47 8
    endloop
  endfacet
  facet normal 0 0 1
    outer loop
      vertex 3 47 8
      vertex 0 50 8
      vertex 3 3 8
    endloop
  endfacet
  facet normal -0 0 1
    outer loop
      vertex 0 50 8
      vertex 3 47 8
      vertex 31 50 8
    endloop
  endfacet
  facet normal 0 0 1
    outer loop
      vertex 31 16 8
      vertex 28 47 8
      vertex 28 16 8
    endloop
  endfacet
  facet normal 0 0 1
    outer loop
      vertex 28 3 8
      vertex 31 6 8
      vertex 28 6 8
    endloop
  endfacet
  facet normal 0 0 1
    outer loop
      vertex 31 6 8
      vertex 28 3 8
      vertex 31 0 8
    endloop
  endfacet
  facet normal -0 0 1
    outer loop
      vertex 3 3 8
      vertex 31 0 8
      vertex 28 3 8
    endloop
  endfacet
  facet normal 0 0 1
    outer loop
      vertex 3 3 8
      vertex 0 0 8
      vertex 31 0 8
    endloop
  endfacet
  facet normal 0 0 1
    outer loop
      vertex 0 0 8
      vertex 3 3 8
      vertex 0 50 8
    endloop
  endfacet
  facet normal 1 0 0
    outer loop
      vertex 31 6 8
      vertex 31 0 8
      vertex 31 6 3
    endloop
  endfacet
  facet normal 1 0 0
    outer loop
      vertex 31 16 3
      vertex 31 50 8
      vertex 31 16 8
    endloop
  endfacet
  facet normal 1 0 0
    outer loop
      vertex 31 50 8
      vertex 31 16 3
      vertex 31 50 0
    endloop
  endfacet
  facet normal 1 0 0
    outer loop
      vertex 31 0 0
      vertex 31 16 3
      vertex 31 6 3
    endloop
  endfacet
  facet normal 1 0 0
    outer loop
      vertex 31 16 3
      vertex 31 0 0
      vertex 31 50 0
    endloop
  endfacet
  facet normal 1 0 0
    outer loop
      vertex 31 0 0
      vertex 31 6 3
      vertex 31 0 8
    endloop
  endfacet
  facet normal 0 1 0
    outer loop
      vertex 3 50 0
      vertex 31 50 8
      vertex 31 50 0
    endloop
  endfacet
  facet normal 0 1 0
    outer loop
      vertex 31 50 8
      vertex 3 50 0
      vertex 0 50 8
    endloop
  endfacet
  facet normal 0 1 0
    outer loop
      vertex 0 50 -19
      vertex 3 50 0
      vertex 3 50 -19
    endloop
  endfacet
  facet normal 0 1 0
    outer loop
      vertex 3 50 0
      vertex 0 50 -19
      vertex 0 50 8
    endloop
  endfacet
  facet normal -0 0 1
    outer loop
      vertex 3 47 3
      vertex 28 16 3
      vertex 28 47 3
    endloop
  endfacet
  facet normal 0 0 1
    outer loop
      vertex 3 3 3
      vertex 28 16 3
      vertex 3 47 3
    endloop
  endfacet
  facet normal 0 0 1
    outer loop
      vertex 28 16 3
      vertex 3 3 3
      vertex 28 6 3
    endloop
  endfacet
  facet normal 0 0 1
    outer loop
      vertex 28 6 3
      vertex 3 3 3
      vertex 28 3 3
    endloop
  endfacet
  facet normal -0 0 1
    outer loop
      vertex 28 16 3
      vertex 31 6 3
      vertex 31 16 3
    endloop
  endfacet
  facet normal 0 0 1
    outer loop
      vertex 31 6 3
      vertex 28 16 3
      vertex 28 6 3
    endloop
  endfacet
  facet normal 0 -1 0
    outer loop
      vertex 0 0 8
      vertex 3 0 0
      vertex 31 0 8
    endloop
  endfacet
  facet normal 0 -1 0
    outer loop
      vertex 0 0 -19
      vertex 3 0 0
      vertex 0 0 8
    endloop
  endfacet
  facet normal 0 -1 -0
    outer loop
      vertex 3 0 0
      vertex 0 0 -19
      vertex 3 0 -19
    endloop
  endfacet
  facet normal 0 -1 -0
    outer loop
      vertex 31 0 8
      vertex 3 0 0
      vertex 31 0 0
    endloop
  endfacet
  facet normal 0 -1 0
    outer loop
      vertex 28 16 3
      vertex 31 16 8
      vertex 28 16 8
    endloop
  endfacet
  facet normal 0 -1 -0
    outer loop
      vertex 31 16 8
      vertex 28 16 3
      vertex 31 16 3
    endloop
  endfacet
  facet normal 0 1 -0
    outer loop
      vertex 31 6 3
      vertex 28 6 8
      vertex 31 6 8
    endloop
  endfacet
  facet normal 0 1 0
    outer loop
      vertex 28 6 8
      vertex 31 6 3
      vertex 28 6 3
    endloop
  endfacet
  facet normal -1 0 0
    outer loop
      vertex 0 27.4951 -9.84302
      vertex 0 50 -19
      vertex 0 27.5 -10
    endloop
  endfacet
  facet normal -1 0 0
    outer loop
      vertex 0 50 -19
      vertex 0 27.4951 -10.157
      vertex 0 27.5 -10
    endloop
  endfacet
  facet normal -1 0 0
    outer loop
      vertex 0 50 -19
      vertex 0 27.4803 -10.3133
      vertex 0 27.4951 -10.157
    endloop
  endfacet
  facet normal -1 0 0
    outer loop
      vertex 0 50 -19
      vertex 0 27.4557 -10.4685
      vertex 0 27.4803 -10.3133
    endloop
  endfacet
  facet normal -1 0 0
    outer loop
      vertex 0 50 -19
      vertex 0 27.4215 -10.6217
      vertex 0 27.4557 -10.4685
    endloop
  endfacet
  facet normal -1 0 0
    outer loop
      vertex 0 50 -19
      vertex 0 27.3776 -10.7725
      vertex 0 27.4215 -10.6217
    endloop
  endfacet
  facet normal -1 0 0
    outer loop
      vertex 0 50 -19
      vertex 0 27.3244 -10.9203
      vertex 0 27.3776 -10.7725
    endloop
  endfacet
  facet normal -1 0 0
    outer loop
      vertex 0 50 -19
      vertex 0 27.2621 -11.0644
      vertex 0 27.3244 -10.9203
    endloop
  endfacet
  facet normal -1 0 0
    outer loop
      vertex 0 50 -19
      vertex 0 27.1908 -11.2044
      vertex 0 27.2621 -11.0644
    endloop
  endfacet
  facet normal -1 0 0
    outer loop
      vertex 0 50 -19
      vertex 0 27.1108 -11.3396
      vertex 0 27.1908 -11.2044
    endloop
  endfacet
  facet normal -1 0 0
    outer loop
      vertex 0 50 -19
      vertex 0 27.0225 -11.4695
      vertex 0 27.1108 -11.3396
    endloop
  endfacet
  facet normal -1 0 0
    outer loop
      vertex 0 50 -19
      vertex 0 26.9263 -11.5936
      vertex 0 27.0225 -11.4695
    endloop
  endfacet
  facet normal -1 0 0
    outer loop
      vertex 0 50 -19
      vertex 0 26.8224 -11.7114
      vertex 0 26.9263 -11.5936
    endloop
  endfacet
  facet normal -1 0 0
    outer loop
      vertex 0 50 -19
      vertex 0 26.7114 -11.8224
      vertex 0 26.8224 -11.7114
    endloop
  endfacet
  facet normal -1 0 0
    outer loop
      vertex 0 50 -19
      vertex 0 26.5936 -11.9263
      vertex 0 26.7114 -11.8224
    endloop
  endfacet
  facet normal -1 0 0
    outer loop
      vertex 0 50 -19
      vertex 0 26.4695 -12.0225
      vertex 0 26.5936 -11.9263
    endloop
  endfacet
  facet normal -1 0 0
    outer loop
      vertex 0 50 -19
      vertex 0 26.3396 -12.1108
      vertex 0 26.4695 -12.0225
    endloop
  endfacet
  facet normal -1 0 0
    outer loop
      vertex 0 50 -19
      vertex 0 26.2044 -12.1908
      vertex 0 26.3396 -12.1108
    endloop
  endfacet
  facet normal -1 0 0
    outer loop
      vertex 0 50 -19
      vertex 0 26.0644 -12.2621
      vertex 0 26.2044 -12.1908
    endloop
  endfacet
  facet normal -1 0 0
    outer loop
      vertex 0 50 -19
      vertex 0 25.9203 -12.3244
      vertex 0 26.0644 -12.2621
    endloop
  endfacet
  facet normal -1 0 0
    outer loop
      vertex 0 50 -19
      vertex 0 25.7725 -12.3776
      vertex 0 25.9203 -12.3244
    endloop
  endfacet
  facet normal -1 0 0
    outer loop
      vertex 0 50 -19
      vertex 0 25.6217 -12.4215
      vertex 0 25.7725 -12.3776
    endloop
  endfacet
  facet normal -1 0 0
    outer loop
      vertex 0 50 -19
      vertex 0 25.4685 -12.4557
      vertex 0 25.6217 -12.4215
    endloop
  endfacet
  facet normal -1 0 0
    outer loop
      vertex 0 50 -19
      vertex 0 25.3133 -12.4803
      vertex 0 25.4685 -12.4557
    endloop
  endfacet
  facet normal -1 0 0
    outer loop
      vertex 0 50 -19
      vertex 0 25.157 -12.4951
      vertex 0 25.3133 -12.4803
    endloop
  endfacet
  facet normal -1 0 0
    outer loop
      vertex 0 50 -19
      vertex 0 25 -12.5
      vertex 0 25.157 -12.4951
    endloop
  endfacet
  facet normal -1 0 0
    outer loop
      vertex 0 0 -19
      vertex 0 25 -12.5
      vertex 0 50 -19
    endloop
  endfacet
  facet normal -1 -0 0
    outer loop
      vertex 0 25 -12.5
      vertex 0 0 -19
      vertex 0 24.843 -12.4951
    endloop
  endfacet
  facet normal -1 -0 0
    outer loop
      vertex 0 24.843 -12.4951
      vertex 0 0 -19
      vertex 0 24.6867 -12.4803
    endloop
  endfacet
  facet normal -1 -0 0
    outer loop
      vertex 0 24.6867 -12.4803
      vertex 0 0 -19
      vertex 0 24.5315 -12.4557
    endloop
  endfacet
  facet normal -1 -0 0
    outer loop
      vertex 0 22.5049 -10.157
      vertex 0 0 -19
      vertex 0 22.5 -10
    endloop
  endfacet
  facet normal -1 -0 0
    outer loop
      vertex 0 22.5197 -10.3133
      vertex 0 0 -19
      vertex 0 22.5049 -10.157
    endloop
  endfacet
  facet normal -1 -0 0
    outer loop
      vertex 0 22.5443 -10.4685
      vertex 0 0 -19
      vertex 0 22.5197 -10.3133
    endloop
  endfacet
  facet normal -1 -0 0
    outer loop
      vertex 0 22.5785 -10.6217
      vertex 0 0 -19
      vertex 0 22.5443 -10.4685
    endloop
  endfacet
  facet normal -1 -0 0
    outer loop
      vertex 0 22.6224 -10.7725
      vertex 0 0 -19
      vertex 0 22.5785 -10.6217
    endloop
  endfacet
  facet normal -1 -0 0
    outer loop
      vertex 0 22.6756 -10.9203
      vertex 0 0 -19
      vertex 0 22.6224 -10.7725
    endloop
  endfacet
  facet normal -1 -0 0
    outer loop
      vertex 0 22.7379 -11.0644
      vertex 0 0 -19
      vertex 0 22.6756 -10.9203
    endloop
  endfacet
  facet normal -1 -0 0
    outer loop
      vertex 0 22.8092 -11.2044
      vertex 0 0 -19
      vertex 0 22.7379 -11.0644
    endloop
  endfacet
  facet normal -1 -0 0
    outer loop
      vertex 0 22.8892 -11.3396
      vertex 0 0 -19
      vertex 0 22.8092 -11.2044
    endloop
  endfacet
  facet normal -1 -0 0
    outer loop
      vertex 0 22.9775 -11.4695
      vertex 0 0 -19
      vertex 0 22.8892 -11.3396
    endloop
  endfacet
  facet normal -1 -0 0
    outer loop
      vertex 0 23.0737 -11.5936
      vertex 0 0 -19
      vertex 0 22.9775 -11.4695
    endloop
  endfacet
  facet normal -1 -0 0
    outer loop
      vertex 0 23.1776 -11.7114
      vertex 0 0 -19
      vertex 0 23.0737 -11.5936
    endloop
  endfacet
  facet normal -1 -0 0
    outer loop
      vertex 0 23.2886 -11.8224
      vertex 0 0 -19
      vertex 0 23.1776 -11.7114
    endloop
  endfacet
  facet normal -1 -0 0
    outer loop
      vertex 0 23.4064 -11.9263
      vertex 0 0 -19
      vertex 0 23.2886 -11.8224
    endloop
  endfacet
  facet normal -1 -0 0
    outer loop
      vertex 0 23.5305 -12.0225
      vertex 0 0 -19
      vertex 0 23.4064 -11.9263
    endloop
  endfacet
  facet normal -1 -0 0
    outer loop
      vertex 0 23.6604 -12.1108
      vertex 0 0 -19
      vertex 0 23.5305 -12.0225
    endloop
  endfacet
  facet normal -1 -0 0
    outer loop
      vertex 0 23.7956 -12.1908
      vertex 0 0 -19
      vertex 0 23.6604 -12.1108
    endloop
  endfacet
  facet normal -1 -0 0
    outer loop
      vertex 0 23.9356 -12.2621
      vertex 0 0 -19
      vertex 0 23.7956 -12.1908
    endloop
  endfacet
  facet normal -1 -0 0
    outer loop
      vertex 0 24.0797 -12.3244
      vertex 0 0 -19
      vertex 0 23.9356 -12.2621
    endloop
  endfacet
  facet normal -1 -0 0
    outer loop
      vertex 0 24.2275 -12.3776
      vertex 0 0 -19
      vertex 0 24.0797 -12.3244
    endloop
  endfacet
  facet normal -1 -0 0
    outer loop
      vertex 0 24.3783 -12.4215
      vertex 0 0 -19
      vertex 0 24.2275 -12.3776
    endloop
  endfacet
  facet normal -1 -0 0
    outer loop
      vertex 0 24.5315 -12.4557
      vertex 0 0 -19
      vertex 0 24.3783 -12.4215
    endloop
  endfacet
  facet normal -1 0 0
    outer loop
      vertex 0 27.4803 -9.68667
      vertex 0 50 -19
      vertex 0 27.4951 -9.84302
    endloop
  endfacet
  facet normal -1 0 0
    outer loop
      vertex 0 27.4557 -9.53155
      vertex 0 50 -19
      vertex 0 27.4803 -9.68667
    endloop
  endfacet
  facet normal -1 0 0
    outer loop
      vertex 0 27.4215 -9.37827
      vertex 0 50 -19
      vertex 0 27.4557 -9.53155
    endloop
  endfacet
  facet normal -1 0 0
    outer loop
      vertex 0 50 -19
      vertex 0 27.4215 -9.37827
      vertex 0 50 8
    endloop
  endfacet
  facet normal -1 0 0
    outer loop
      vertex 0 27.3776 -9.22746
      vertex 0 50 8
      vertex 0 27.4215 -9.37827
    endloop
  endfacet
  facet normal -1 0 0
    outer loop
      vertex 0 27.3244 -9.07969
      vertex 0 50 8
      vertex 0 27.3776 -9.22746
    endloop
  endfacet
  facet normal -1 0 0
    outer loop
      vertex 0 27.2621 -8.93555
      vertex 0 50 8
      vertex 0 27.3244 -9.07969
    endloop
  endfacet
  facet normal -1 0 0
    outer loop
      vertex 0 27.1908 -8.79562
      vertex 0 50 8
      vertex 0 27.2621 -8.93555
    endloop
  endfacet
  facet normal -1 0 0
    outer loop
      vertex 0 27.1108 -8.66043
      vertex 0 50 8
      vertex 0 27.1908 -8.79562
    endloop
  endfacet
  facet normal -1 0 0
    outer loop
      vertex 0 27.0225 -8.53054
      vertex 0 50 8
      vertex 0 27.1108 -8.66043
    endloop
  endfacet
  facet normal -1 0 0
    outer loop
      vertex 0 26.9263 -8.40644
      vertex 0 50 8
      vertex 0 27.0225 -8.53054
    endloop
  endfacet
  facet normal -1 0 0
    outer loop
      vertex 0 26.8224 -8.28863
      vertex 0 50 8
      vertex 0 26.9263 -8.40644
    endloop
  endfacet
  facet normal -1 0 0
    outer loop
      vertex 0 26.7114 -8.17758
      vertex 0 50 8
      vertex 0 26.8224 -8.28863
    endloop
  endfacet
  facet normal -1 0 0
    outer loop
      vertex 0 26.5936 -8.07372
      vertex 0 50 8
      vertex 0 26.7114 -8.17758
    endloop
  endfacet
  facet normal -1 0 0
    outer loop
      vertex 0 26.4695 -7.97746
      vertex 0 50 8
      vertex 0 26.5936 -8.07372
    endloop
  endfacet
  facet normal -1 0 0
    outer loop
      vertex 0 26.3396 -7.88918
      vertex 0 50 8
      vertex 0 26.4695 -7.97746
    endloop
  endfacet
  facet normal -1 0 0
    outer loop
      vertex 0 26.2044 -7.80923
      vertex 0 50 8
      vertex 0 26.3396 -7.88918
    endloop
  endfacet
  facet normal -1 0 0
    outer loop
      vertex 0 26.0644 -7.73793
      vertex 0 50 8
      vertex 0 26.2044 -7.80923
    endloop
  endfacet
  facet normal -1 0 0
    outer loop
      vertex 0 25.9203 -7.67556
      vertex 0 50 8
      vertex 0 26.0644 -7.73793
    endloop
  endfacet
  facet normal -1 0 0
    outer loop
      vertex 0 25.7725 -7.62236
      vertex 0 50 8
      vertex 0 25.9203 -7.67556
    endloop
  endfacet
  facet normal -1 0 0
    outer loop
      vertex 0 25.6217 -7.57854
      vertex 0 50 8
      vertex 0 25.7725 -7.62236
    endloop
  endfacet
  facet normal -1 0 0
    outer loop
      vertex 0 25.4685 -7.54428
      vertex 0 50 8
      vertex 0 25.6217 -7.57854
    endloop
  endfacet
  facet normal -1 0 0
    outer loop
      vertex 0 25.3133 -7.51971
      vertex 0 50 8
      vertex 0 25.4685 -7.54428
    endloop
  endfacet
  facet normal -1 0 0
    outer loop
      vertex 0 25.157 -7.50493
      vertex 0 50 8
      vertex 0 25.3133 -7.51971
    endloop
  endfacet
  facet normal -1 0 0
    outer loop
      vertex 0 25 -7.5
      vertex 0 50 8
      vertex 0 25.157 -7.50493
    endloop
  endfacet
  facet normal -1 0 0
    outer loop
      vertex 0 0 8
      vertex 0 25 -7.5
      vertex 0 24.843 -7.50493
    endloop
  endfacet
  facet normal -1 0 0
    outer loop
      vertex 0 0 8
      vertex 0 24.843 -7.50493
      vertex 0 24.6867 -7.51971
    endloop
  endfacet
  facet normal -1 0 0
    outer loop
      vertex 0 0 8
      vertex 0 24.6867 -7.51971
      vertex 0 24.5315 -7.54428
    endloop
  endfacet
  facet normal -1 0 0
    outer loop
      vertex 0 0 8
      vertex 0 24.5315 -7.54428
      vertex 0 24.3783 -7.57854
    endloop
  endfacet
  facet normal -1 0 0
    outer loop
      vertex 0 0 8
      vertex 0 24.3783 -7.57854
      vertex 0 24.2275 -7.62236
    endloop
  endfacet
  facet normal -1 0 0
    outer loop
      vertex 0 0 8
      vertex 0 24.2275 -7.62236
      vertex 0 24.0797 -7.67556
    endloop
  endfacet
  facet normal -1 0 0
    outer loop
      vertex 0 0 8
      vertex 0 24.0797 -7.67556
      vertex 0 23.9356 -7.73793
    endloop
  endfacet
  facet normal -1 0 0
    outer loop
      vertex 0 0 8
      vertex 0 23.9356 -7.73793
      vertex 0 23.7956 -7.80923
    endloop
  endfacet
  facet normal -1 0 0
    outer loop
      vertex 0 0 8
      vertex 0 23.7956 -7.80923
      vertex 0 23.6604 -7.88918
    endloop
  endfacet
  facet normal -1 0 0
    outer loop
      vertex 0 0 -19
      vertex 0 22.5049 -9.84302
      vertex 0 22.5 -10
    endloop
  endfacet
  facet normal -1 0 0
    outer loop
      vertex 0 0 -19
      vertex 0 22.5197 -9.68667
      vertex 0 22.5049 -9.84302
    endloop
  endfacet
  facet normal -1 0 0
    outer loop
      vertex 0 0 -19
      vertex 0 22.5443 -9.53155
      vertex 0 22.5197 -9.68667
    endloop
  endfacet
  facet normal -1 0 0
    outer loop
      vertex 0 0 -19
      vertex 0 22.5785 -9.37827
      vertex 0 22.5443 -9.53155
    endloop
  endfacet
  facet normal -1 0 0
    outer loop
      vertex 0 0 8
      vertex 0 22.5785 -9.37827
      vertex 0 0 -19
    endloop
  endfacet
  facet normal -1 0 0
    outer loop
      vertex 0 22.5785 -9.37827
      vertex 0 0 8
      vertex 0 22.6224 -9.22746
    endloop
  endfacet
  facet normal -1 0 0
    outer loop
      vertex 0 22.6224 -9.22746
      vertex 0 0 8
      vertex 0 22.6756 -9.07969
    endloop
  endfacet
  facet normal -1 0 0
    outer loop
      vertex 0 22.6756 -9.07969
      vertex 0 0 8
      vertex 0 22.7379 -8.93555
    endloop
  endfacet
  facet normal -1 0 0
    outer loop
      vertex 0 22.7379 -8.93555
      vertex 0 0 8
      vertex 0 22.8092 -8.79562
    endloop
  endfacet
  facet normal -1 0 0
    outer loop
      vertex 0 22.8092 -8.79562
      vertex 0 0 8
      vertex 0 22.8892 -8.66043
    endloop
  endfacet
  facet normal -1 0 0
    outer loop
      vertex 0 22.8892 -8.66043
      vertex 0 0 8
      vertex 0 22.9775 -8.53054
    endloop
  endfacet
  facet normal -1 0 0
    outer loop
      vertex 0 22.9775 -8.53054
      vertex 0 0 8
      vertex 0 23.0737 -8.40644
    endloop
  endfacet
  facet normal -1 0 0
    outer loop
      vertex 0 23.0737 -8.40644
      vertex 0 0 8
      vertex 0 23.1776 -8.28863
    endloop
  endfacet
  facet normal -1 0 0
    outer loop
      vertex 0 23.1776 -8.28863
      vertex 0 0 8
      vertex 0 23.2886 -8.17758
    endloop
  endfacet
  facet normal -1 0 0
    outer loop
      vertex 0 23.2886 -8.17758
      vertex 0 0 8
      vertex 0 23.4064 -8.07372
    endloop
  endfacet
  facet normal -1 0 0
    outer loop
      vertex 0 23.4064 -8.07372
      vertex 0 0 8
      vertex 0 23.5305 -7.97746
    endloop
  endfacet
  facet normal -1 0 0
    outer loop
      vertex 0 23.5305 -7.97746
      vertex 0 0 8
      vertex 0 23.6604 -7.88918
    endloop
  endfacet
  facet normal -1 0 0
    outer loop
      vertex 0 25 -7.5
      vertex 0 0 8
      vertex 0 50 8
    endloop
  endfacet
  facet normal 0 0 -1
    outer loop
      vertex 3 0 0
      vertex 31 50 0
      vertex 31 0 0
    endloop
  endfacet
  facet normal -0 0 -1
    outer loop
      vertex 31 50 0
      vertex 3 0 0
      vertex 3 50 0
    endloop
  endfacet
  facet normal 1 0 0
    outer loop
      vertex 3 50 0
      vertex 3 27.5 -10
      vertex 3 50 -19
    endloop
  endfacet
  facet normal 1 0 0
    outer loop
      vertex 3 50 0
      vertex 3 27.4951 -9.84302
      vertex 3 27.5 -10
    endloop
  endfacet
  facet normal 1 0 0
    outer loop
      vertex 3 50 0
      vertex 3 27.4803 -9.68667
      vertex 3 27.4951 -9.84302
    endloop
  endfacet
  facet normal 1 0 0
    outer loop
      vertex 3 50 0
      vertex 3 27.4557 -9.53155
      vertex 3 27.4803 -9.68667
    endloop
  endfacet
  facet normal 1 0 0
    outer loop
      vertex 3 50 0
      vertex 3 27.4215 -9.37827
      vertex 3 27.4557 -9.53155
    endloop
  endfacet
  facet normal 1 0 0
    outer loop
      vertex 3 50 0
      vertex 3 27.3776 -9.22746
      vertex 3 27.4215 -9.37827
    endloop
  endfacet
  facet normal 1 0 0
    outer loop
      vertex 3 50 0
      vertex 3 27.3244 -9.07969
      vertex 3 27.3776 -9.22746
    endloop
  endfacet
  facet normal 1 0 0
    outer loop
      vertex 3 50 0
      vertex 3 27.2621 -8.93555
      vertex 3 27.3244 -9.07969
    endloop
  endfacet
  facet normal 1 0 0
    outer loop
      vertex 3 50 0
      vertex 3 27.1908 -8.79562
      vertex 3 27.2621 -8.93555
    endloop
  endfacet
  facet normal 1 0 0
    outer loop
      vertex 3 50 0
      vertex 3 27.1108 -8.66043
      vertex 3 27.1908 -8.79562
    endloop
  endfacet
  facet normal 1 0 0
    outer loop
      vertex 3 50 0
      vertex 3 27.0225 -8.53054
      vertex 3 27.1108 -8.66043
    endloop
  endfacet
  facet normal 1 0 0
    outer loop
      vertex 3 50 0
      vertex 3 26.9263 -8.40644
      vertex 3 27.0225 -8.53054
    endloop
  endfacet
  facet normal 1 0 0
    outer loop
      vertex 3 50 0
      vertex 3 26.8224 -8.28863
      vertex 3 26.9263 -8.40644
    endloop
  endfacet
  facet normal 1 0 0
    outer loop
      vertex 3 50 0
      vertex 3 26.7114 -8.17758
      vertex 3 26.8224 -8.28863
    endloop
  endfacet
  facet normal 1 0 0
    outer loop
      vertex 3 50 0
      vertex 3 26.5936 -8.07372
      vertex 3 26.7114 -8.17758
    endloop
  endfacet
  facet normal 1 0 0
    outer loop
      vertex 3 50 0
      vertex 3 26.4695 -7.97746
      vertex 3 26.5936 -8.07372
    endloop
  endfacet
  facet normal 1 0 0
    outer loop
      vertex 3 50 0
      vertex 3 26.3396 -7.88918
      vertex 3 26.4695 -7.97746
    endloop
  endfacet
  facet normal 1 0 0
    outer loop
      vertex 3 50 0
      vertex 3 26.2044 -7.80923
      vertex 3 26.3396 -7.88918
    endloop
  endfacet
  facet normal 1 0 0
    outer loop
      vertex 3 50 0
      vertex 3 26.0644 -7.73793
      vertex 3 26.2044 -7.80923
    endloop
  endfacet
  facet normal 1 0 0
    outer loop
      vertex 3 50 0
      vertex 3 25.9203 -7.67556
      vertex 3 26.0644 -7.73793
    endloop
  endfacet
  facet normal 1 0 0
    outer loop
      vertex 3 50 0
      vertex 3 25.7725 -7.62236
      vertex 3 25.9203 -7.67556
    endloop
  endfacet
  facet normal 1 0 0
    outer loop
      vertex 3 50 0
      vertex 3 25.6217 -7.57854
      vertex 3 25.7725 -7.62236
    endloop
  endfacet
  facet normal 1 0 0
    outer loop
      vertex 3 50 0
      vertex 3 25.4685 -7.54428
      vertex 3 25.6217 -7.57854
    endloop
  endfacet
  facet normal 1 0 0
    outer loop
      vertex 3 50 0
      vertex 3 25.3133 -7.51971
      vertex 3 25.4685 -7.54428
    endloop
  endfacet
  facet normal 1 0 0
    outer loop
      vertex 3 50 0
      vertex 3 25.157 -7.50493
      vertex 3 25.3133 -7.51971
    endloop
  endfacet
  facet normal 1 0 0
    outer loop
      vertex 3 50 0
      vertex 3 25 -7.5
      vertex 3 25.157 -7.50493
    endloop
  endfacet
  facet normal 1 -0 0
    outer loop
      vertex 3 0 0
      vertex 3 25 -7.5
      vertex 3 50 0
    endloop
  endfacet
  facet normal 1 0 0
    outer loop
      vertex 3 25 -7.5
      vertex 3 0 0
      vertex 3 24.843 -7.50493
    endloop
  endfacet
  facet normal 1 0 0
    outer loop
      vertex 3 24.843 -7.50493
      vertex 3 0 0
      vertex 3 24.6867 -7.51971
    endloop
  endfacet
  facet normal 1 0 0
    outer loop
      vertex 3 24.6867 -7.51971
      vertex 3 0 0
      vertex 3 24.5315 -7.54428
    endloop
  endfacet
  facet normal 1 0 0
    outer loop
      vertex 3 24.5315 -7.54428
      vertex 3 0 0
      vertex 3 24.3783 -7.57854
    endloop
  endfacet
  facet normal 1 0 0
    outer loop
      vertex 3 22.5049 -9.84302
      vertex 3 0 0
      vertex 3 22.5 -10
    endloop
  endfacet
  facet normal 1 0 0
    outer loop
      vertex 3 22.5197 -9.68667
      vertex 3 0 0
      vertex 3 22.5049 -9.84302
    endloop
  endfacet
  facet normal 1 0 0
    outer loop
      vertex 3 22.5443 -9.53155
      vertex 3 0 0
      vertex 3 22.5197 -9.68667
    endloop
  endfacet
  facet normal 1 0 0
    outer loop
      vertex 3 22.5785 -9.37827
      vertex 3 0 0
      vertex 3 22.5443 -9.53155
    endloop
  endfacet
  facet normal 1 0 0
    outer loop
      vertex 3 22.6224 -9.22746
      vertex 3 0 0
      vertex 3 22.5785 -9.37827
    endloop
  endfacet
  facet normal 1 0 0
    outer loop
      vertex 3 22.6756 -9.07969
      vertex 3 0 0
      vertex 3 22.6224 -9.22746
    endloop
  endfacet
  facet normal 1 0 0
    outer loop
      vertex 3 22.7379 -8.93555
      vertex 3 0 0
      vertex 3 22.6756 -9.07969
    endloop
  endfacet
  facet normal 1 0 0
    outer loop
      vertex 3 22.8092 -8.79562
      vertex 3 0 0
      vertex 3 22.7379 -8.93555
    endloop
  endfacet
  facet normal 1 0 0
    outer loop
      vertex 3 22.8892 -8.66043
      vertex 3 0 0
      vertex 3 22.8092 -8.79562
    endloop
  endfacet
  facet normal 1 0 0
    outer loop
      vertex 3 22.9775 -8.53054
      vertex 3 0 0
      vertex 3 22.8892 -8.66043
    endloop
  endfacet
  facet normal 1 0 0
    outer loop
      vertex 3 23.0737 -8.40644
      vertex 3 0 0
      vertex 3 22.9775 -8.53054
    endloop
  endfacet
  facet normal 1 0 0
    outer loop
      vertex 3 23.1776 -8.28863
      vertex 3 0 0
      vertex 3 23.0737 -8.40644
    endloop
  endfacet
  facet normal 1 0 0
    outer loop
      vertex 3 23.2886 -8.17758
      vertex 3 0 0
      vertex 3 23.1776 -8.28863
    endloop
  endfacet
  facet normal 1 0 0
    outer loop
      vertex 3 23.4064 -8.07372
      vertex 3 0 0
      vertex 3 23.2886 -8.17758
    endloop
  endfacet
  facet normal 1 0 0
    outer loop
      vertex 3 23.5305 -7.97746
      vertex 3 0 0
      vertex 3 23.4064 -8.07372
    endloop
  endfacet
  facet normal 1 0 0
    outer loop
      vertex 3 23.6604 -7.88918
      vertex 3 0 0
      vertex 3 23.5305 -7.97746
    endloop
  endfacet
  facet normal 1 0 0
    outer loop
      vertex 3 23.7956 -7.80923
      vertex 3 0 0
      vertex 3 23.6604 -7.88918
    endloop
  endfacet
  facet normal 1 0 0
    outer loop
      vertex 3 23.9356 -7.73793
      vertex 3 0 0
      vertex 3 23.7956 -7.80923
    endloop
  endfacet
  facet normal 1 0 0
    outer loop
      vertex 3 24.0797 -7.67556
      vertex 3 0 0
      vertex 3 23.9356 -7.73793
    endloop
  endfacet
  facet normal 1 0 0
    outer loop
      vertex 3 24.2275 -7.62236
      vertex 3 0 0
      vertex 3 24.0797 -7.67556
    endloop
  endfacet
  facet normal 1 0 0
    outer loop
      vertex 3 24.3783 -7.57854
      vertex 3 0 0
      vertex 3 24.2275 -7.62236
    endloop
  endfacet
  facet normal 1 -0 0
    outer loop
      vertex 3 27.4951 -10.157
      vertex 3 50 -19
      vertex 3 27.5 -10
    endloop
  endfacet
  facet normal 1 -0 0
    outer loop
      vertex 3 27.4803 -10.3133
      vertex 3 50 -19
      vertex 3 27.4951 -10.157
    endloop
  endfacet
  facet normal 1 -0 0
    outer loop
      vertex 3 27.4557 -10.4685
      vertex 3 50 -19
      vertex 3 27.4803 -10.3133
    endloop
  endfacet
  facet normal 1 -0 0
    outer loop
      vertex 3 27.4215 -10.6217
      vertex 3 50 -19
      vertex 3 27.4557 -10.4685
    endloop
  endfacet
  facet normal 1 -0 0
    outer loop
      vertex 3 27.3776 -10.7725
      vertex 3 50 -19
      vertex 3 27.4215 -10.6217
    endloop
  endfacet
  facet normal 1 -0 0
    outer loop
      vertex 3 27.3244 -10.9203
      vertex 3 50 -19
      vertex 3 27.3776 -10.7725
    endloop
  endfacet
  facet normal 1 -0 0
    outer loop
      vertex 3 27.2621 -11.0644
      vertex 3 50 -19
      vertex 3 27.3244 -10.9203
    endloop
  endfacet
  facet normal 1 -0 0
    outer loop
      vertex 3 27.1908 -11.2044
      vertex 3 50 -19
      vertex 3 27.2621 -11.0644
    endloop
  endfacet
  facet normal 1 -0 0
    outer loop
      vertex 3 27.1108 -11.3396
      vertex 3 50 -19
      vertex 3 27.1908 -11.2044
    endloop
  endfacet
  facet normal 1 -0 0
    outer loop
      vertex 3 27.0225 -11.4695
      vertex 3 50 -19
      vertex 3 27.1108 -11.3396
    endloop
  endfacet
  facet normal 1 -0 0
    outer loop
      vertex 3 26.9263 -11.5936
      vertex 3 50 -19
      vertex 3 27.0225 -11.4695
    endloop
  endfacet
  facet normal 1 -0 0
    outer loop
      vertex 3 26.8224 -11.7114
      vertex 3 50 -19
      vertex 3 26.9263 -11.5936
    endloop
  endfacet
  facet normal 1 -0 0
    outer loop
      vertex 3 26.7114 -11.8224
      vertex 3 50 -19
      vertex 3 26.8224 -11.7114
    endloop
  endfacet
  facet normal 1 -0 0
    outer loop
      vertex 3 26.5936 -11.9263
      vertex 3 50 -19
      vertex 3 26.7114 -11.8224
    endloop
  endfacet
  facet normal 1 -0 0
    outer loop
      vertex 3 26.4695 -12.0225
      vertex 3 50 -19
      vertex 3 26.5936 -11.9263
    endloop
  endfacet
  facet normal 1 -0 0
    outer loop
      vertex 3 26.3396 -12.1108
      vertex 3 50 -19
      vertex 3 26.4695 -12.0225
    endloop
  endfacet
  facet normal 1 -0 0
    outer loop
      vertex 3 26.2044 -12.1908
      vertex 3 50 -19
      vertex 3 26.3396 -12.1108
    endloop
  endfacet
  facet normal 1 -0 0
    outer loop
      vertex 3 26.0644 -12.2621
      vertex 3 50 -19
      vertex 3 26.2044 -12.1908
    endloop
  endfacet
  facet normal 1 -0 0
    outer loop
      vertex 3 25.9203 -12.3244
      vertex 3 50 -19
      vertex 3 26.0644 -12.2621
    endloop
  endfacet
  facet normal 1 -0 0
    outer loop
      vertex 3 25.7725 -12.3776
      vertex 3 50 -19
      vertex 3 25.9203 -12.3244
    endloop
  endfacet
  facet normal 1 -0 0
    outer loop
      vertex 3 25.6217 -12.4215
      vertex 3 50 -19
      vertex 3 25.7725 -12.3776
    endloop
  endfacet
  facet normal 1 -0 0
    outer loop
      vertex 3 25.4685 -12.4557
      vertex 3 50 -19
      vertex 3 25.6217 -12.4215
    endloop
  endfacet
  facet normal 1 -0 0
    outer loop
      vertex 3 25.3133 -12.4803
      vertex 3 50 -19
      vertex 3 25.4685 -12.4557
    endloop
  endfacet
  facet normal 1 -0 0
    outer loop
      vertex 3 25.157 -12.4951
      vertex 3 50 -19
      vertex 3 25.3133 -12.4803
    endloop
  endfacet
  facet normal 1 -0 0
    outer loop
      vertex 3 25 -12.5
      vertex 3 50 -19
      vertex 3 25.157 -12.4951
    endloop
  endfacet
  facet normal 1 0 0
    outer loop
      vertex 3 0 -19
      vertex 3 25 -12.5
      vertex 3 24.843 -12.4951
    endloop
  endfacet
  facet normal 1 0 0
    outer loop
      vertex 3 0 -19
      vertex 3 24.843 -12.4951
      vertex 3 24.6867 -12.4803
    endloop
  endfacet
  facet normal 1 0 0
    outer loop
      vertex 3 0 -19
      vertex 3 24.6867 -12.4803
      vertex 3 24.5315 -12.4557
    endloop
  endfacet
  facet normal 1 0 0
    outer loop
      vertex 3 0 -19
      vertex 3 24.5315 -12.4557
      vertex 3 24.3783 -12.4215
    endloop
  endfacet
  facet normal 1 0 0
    outer loop
      vertex 3 0 -19
      vertex 3 22.5 -10
      vertex 3 0 0
    endloop
  endfacet
  facet normal 1 0 0
    outer loop
      vertex 3 22.5 -10
      vertex 3 0 -19
      vertex 3 22.5049 -10.157
    endloop
  endfacet
  facet normal 1 0 0
    outer loop
      vertex 3 22.5049 -10.157
      vertex 3 0 -19
      vertex 3 22.5197 -10.3133
    endloop
  endfacet
  facet normal 1 0 0
    outer loop
      vertex 3 22.5197 -10.3133
      vertex 3 0 -19
      vertex 3 22.5443 -10.4685
    endloop
  endfacet
  facet normal 1 0 0
    outer loop
      vertex 3 22.5443 -10.4685
      vertex 3 0 -19
      vertex 3 22.5785 -10.6217
    endloop
  endfacet
  facet normal 1 0 0
    outer loop
      vertex 3 22.5785 -10.6217
      vertex 3 0 -19
      vertex 3 22.6224 -10.7725
    endloop
  endfacet
  facet normal 1 0 0
    outer loop
      vertex 3 22.6224 -10.7725
      vertex 3 0 -19
      vertex 3 22.6756 -10.9203
    endloop
  endfacet
  facet normal 1 0 0
    outer loop
      vertex 3 22.6756 -10.9203
      vertex 3 0 -19
      vertex 3 22.7379 -11.0644
    endloop
  endfacet
  facet normal 1 0 0
    outer loop
      vertex 3 22.7379 -11.0644
      vertex 3 0 -19
      vertex 3 22.8092 -11.2044
    endloop
  endfacet
  facet normal 1 0 0
    outer loop
      vertex 3 22.8092 -11.2044
      vertex 3 0 -19
      vertex 3 22.8892 -11.3396
    endloop
  endfacet
  facet normal 1 0 0
    outer loop
      vertex 3 22.8892 -11.3396
      vertex 3 0 -19
      vertex 3 22.9775 -11.4695
    endloop
  endfacet
  facet normal 1 0 0
    outer loop
      vertex 3 22.9775 -11.4695
      vertex 3 0 -19
      vertex 3 23.0737 -11.5936
    endloop
  endfacet
  facet normal 1 0 0
    outer loop
      vertex 3 23.0737 -11.5936
      vertex 3 0 -19
      vertex 3 23.1776 -11.7114
    endloop
  endfacet
  facet normal 1 0 0
    outer loop
      vertex 3 23.1776 -11.7114
      vertex 3 0 -19
      vertex 3 23.2886 -11.8224
    endloop
  endfacet
  facet normal 1 0 0
    outer loop
      vertex 3 23.2886 -11.8224
      vertex 3 0 -19
      vertex 3 23.4064 -11.9263
    endloop
  endfacet
  facet normal 1 0 0
    outer loop
      vertex 3 23.4064 -11.9263
      vertex 3 0 -19
      vertex 3 23.5305 -12.0225
    endloop
  endfacet
  facet normal 1 0 0
    outer loop
      vertex 3 23.5305 -12.0225
      vertex 3 0 -19
      vertex 3 23.6604 -12.1108
    endloop
  endfacet
  facet normal 1 0 0
    outer loop
      vertex 3 25 -12.5
      vertex 3 0 -19
      vertex 3 50 -19
    endloop
  endfacet
  facet normal 1 0 0
    outer loop
      vertex 3 24.2275 -12.3776
      vertex 3 0 -19
      vertex 3 24.3783 -12.4215
    endloop
  endfacet
  facet normal 1 0 0
    outer loop
      vertex 3 24.0797 -12.3244
      vertex 3 0 -19
      vertex 3 24.2275 -12.3776
    endloop
  endfacet
  facet normal 1 0 0
    outer loop
      vertex 3 23.9356 -12.2621
      vertex 3 0 -19
      vertex 3 24.0797 -12.3244
    endloop
  endfacet
  facet normal 1 0 0
    outer loop
      vertex 3 23.7956 -12.1908
      vertex 3 0 -19
      vertex 3 23.9356 -12.2621
    endloop
  endfacet
  facet normal 1 0 0
    outer loop
      vertex 3 23.6604 -12.1108
      vertex 3 0 -19
      vertex 3 23.7956 -12.1908
    endloop
  endfacet
  facet normal 0 0 -1
    outer loop
      vertex 0 0 -19
      vertex 3 50 -19
      vertex 3 0 -19
    endloop
  endfacet
  facet normal -0 0 -1
    outer loop
      vertex 3 50 -19
      vertex 0 0 -19
      vertex 0 50 -19
    endloop
  endfacet
  facet normal 0 -0.031195 0.999513
    outer loop
      vertex 0 25.157 -12.4951
      vertex 3 25 -12.5
      vertex 3 25.157 -12.4951
    endloop
  endfacet
  facet normal 0 -0.031195 0.999513
    outer loop
      vertex 3 25 -12.5
      vertex 0 25.157 -12.4951
      vertex 0 25 -12.5
    endloop
  endfacet
  facet normal 0 0.0313858 -0.999507
    outer loop
      vertex 0 24.843 -7.50493
      vertex 3 25 -7.5
      vertex 3 24.843 -7.50493
    endloop
  endfacet
  facet normal 0 0.0313858 -0.999507
    outer loop
      vertex 3 25 -7.5
      vertex 0 24.843 -7.50493
      vertex 0 25 -7.5
    endloop
  endfacet
  facet normal 0 -0.999513 -0.031199
    outer loop
      vertex 0 27.5 -10
      vertex 3 27.4951 -9.84302
      vertex 0 27.4951 -9.84302
    endloop
  endfacet
  facet normal 0 -0.999513 -0.031199
    outer loop
      vertex 3 27.4951 -9.84302
      vertex 0 27.5 -10
      vertex 3 27.5 -10
    endloop
  endfacet
  facet normal 0 0.707266 -0.706948
    outer loop
      vertex 3 23.1776 -8.28863
      vertex 0 23.2886 -8.17758
      vertex 3 23.2886 -8.17758
    endloop
  endfacet
  facet normal 0 0.707266 -0.706948
    outer loop
      vertex 0 23.2886 -8.17758
      vertex 3 23.1776 -8.28863
      vertex 0 23.1776 -8.28863
    endloop
  endfacet
  facet normal 0 -0.707266 -0.706948
    outer loop
      vertex 0 26.8224 -8.28863
      vertex 3 26.7114 -8.17758
      vertex 0 26.7114 -8.17758
    endloop
  endfacet
  facet normal 0 -0.707266 -0.706948
    outer loop
      vertex 3 26.7114 -8.17758
      vertex 0 26.8224 -8.28863
      vertex 3 26.8224 -8.28863
    endloop
  endfacet
  facet normal 0 -0.917929 -0.396746
    outer loop
      vertex 0 27.3244 -9.07969
      vertex 3 27.2621 -8.93555
      vertex 0 27.2621 -8.93555
    endloop
  endfacet
  facet normal 0 -0.917929 -0.396746
    outer loop
      vertex 3 27.2621 -8.93555
      vertex 0 27.3244 -9.07969
      vertex 3 27.3244 -9.07969
    endloop
  endfacet
  facet normal 0 -0.707107 0.707107
    outer loop
      vertex 0 26.7114 -11.8224
      vertex 3 26.8224 -11.7114
      vertex 0 26.8224 -11.7114
    endloop
  endfacet
  facet normal 0 -0.707107 0.707107
    outer loop
      vertex 3 26.8224 -11.7114
      vertex 0 26.7114 -11.8224
      vertex 3 26.7114 -11.8224
    endloop
  endfacet
  facet normal 0 -0.917888 0.396839
    outer loop
      vertex 0 27.2621 -11.0644
      vertex 3 27.3244 -10.9203
      vertex 0 27.3244 -10.9203
    endloop
  endfacet
  facet normal 0 -0.917888 0.396839
    outer loop
      vertex 3 27.3244 -10.9203
      vertex 0 27.2621 -11.0644
      vertex 3 27.2621 -11.0644
    endloop
  endfacet
  facet normal 0 -0.509008 -0.860762
    outer loop
      vertex 0 26.2044 -7.80923
      vertex 3 26.3396 -7.88918
      vertex 3 26.2044 -7.80923
    endloop
  endfacet
  facet normal -0 -0.509008 -0.860762
    outer loop
      vertex 3 26.3396 -7.88918
      vertex 0 26.2044 -7.80923
      vertex 0 26.3396 -7.88918
    endloop
  endfacet
  facet normal 0 -0.562084 -0.82708
    outer loop
      vertex 0 26.3396 -7.88918
      vertex 3 26.4695 -7.97746
      vertex 3 26.3396 -7.88918
    endloop
  endfacet
  facet normal -0 -0.562084 -0.82708
    outer loop
      vertex 3 26.4695 -7.97746
      vertex 0 26.3396 -7.88918
      vertex 0 26.4695 -7.97746
    endloop
  endfacet
  facet normal 0 -0.976001 -0.217766
    outer loop
      vertex 0 27.4557 -9.53155
      vertex 3 27.4215 -9.37827
      vertex 0 27.4215 -9.37827
    endloop
  endfacet
  facet normal 0 -0.976001 -0.217766
    outer loop
      vertex 3 27.4215 -9.37827
      vertex 0 27.4557 -9.53155
      vertex 3 27.4557 -9.53155
    endloop
  endfacet
  facet normal -0 0.509244 0.860622
    outer loop
      vertex 0 23.7956 -12.1908
      vertex 3 23.6604 -12.1108
      vertex 3 23.7956 -12.1908
    endloop
  endfacet
  facet normal 0 0.509244 0.860622
    outer loop
      vertex 3 23.6604 -12.1108
      vertex 0 23.7956 -12.1908
      vertex 0 23.6604 -12.1108
    endloop
  endfacet
  facet normal 0 0.960142 0.279511
    outer loop
      vertex 3 22.6224 -10.7725
      vertex 0 22.5785 -10.6217
      vertex 3 22.5785 -10.6217
    endloop
  endfacet
  facet normal 0 0.960142 0.279511
    outer loop
      vertex 0 22.5785 -10.6217
      vertex 3 22.6224 -10.7725
      vertex 0 22.6224 -10.7725
    endloop
  endfacet
  facet normal 0 0.707107 0.707107
    outer loop
      vertex 3 23.2886 -11.8224
      vertex 0 23.1776 -11.7114
      vertex 3 23.1776 -11.7114
    endloop
  endfacet
  facet normal 0 0.707107 0.707107
    outer loop
      vertex 0 23.1776 -11.7114
      vertex 3 23.2886 -11.8224
      vertex 0 23.2886 -11.8224
    endloop
  endfacet
  facet normal -0 0.338674 0.940904
    outer loop
      vertex 0 24.2275 -12.3776
      vertex 3 24.0797 -12.3244
      vertex 3 24.2275 -12.3776
    endloop
  endfacet
  facet normal 0 0.338674 0.940904
    outer loop
      vertex 3 24.0797 -12.3244
      vertex 0 24.2275 -12.3776
      vertex 0 24.0797 -12.3244
    endloop
  endfacet
  facet normal 0 0.940882 -0.338735
    outer loop
      vertex 3 22.6224 -9.22746
      vertex 0 22.6756 -9.07969
      vertex 3 22.6756 -9.07969
    endloop
  endfacet
  facet normal 0 0.940882 -0.338735
    outer loop
      vertex 0 22.6756 -9.07969
      vertex 3 22.6224 -9.22746
      vertex 0 22.6224 -9.22746
    endloop
  endfacet
  facet normal 0 0.218239 -0.975895
    outer loop
      vertex 0 24.3783 -7.57854
      vertex 3 24.5315 -7.54428
      vertex 3 24.3783 -7.57854
    endloop
  endfacet
  facet normal 0 0.218239 -0.975895
    outer loop
      vertex 3 24.5315 -7.54428
      vertex 0 24.3783 -7.57854
      vertex 0 24.5315 -7.54428
    endloop
  endfacet
  facet normal 0 -0.279511 0.960142
    outer loop
      vertex 0 25.7725 -12.3776
      vertex 3 25.6217 -12.4215
      vertex 3 25.7725 -12.3776
    endloop
  endfacet
  facet normal 0 -0.279511 0.960142
    outer loop
      vertex 3 25.6217 -12.4215
      vertex 0 25.7725 -12.3776
      vertex 0 25.6217 -12.4215
    endloop
  endfacet
  facet normal 0 -0.562171 0.827021
    outer loop
      vertex 0 26.4695 -12.0225
      vertex 3 26.3396 -12.1108
      vertex 3 26.4695 -12.0225
    endloop
  endfacet
  facet normal 0 -0.562171 0.827021
    outer loop
      vertex 3 26.3396 -12.1108
      vertex 0 26.4695 -12.0225
      vertex 0 26.3396 -12.1108
    endloop
  endfacet
  facet normal 0 -0.453821 0.891093
    outer loop
      vertex 0 26.2044 -12.1908
      vertex 3 26.0644 -12.2621
      vertex 3 26.2044 -12.1908
    endloop
  endfacet
  facet normal 0 -0.453821 0.891093
    outer loop
      vertex 3 26.0644 -12.2621
      vertex 0 26.2044 -12.1908
      vertex 0 26.0644 -12.2621
    endloop
  endfacet
  facet normal 0 -0.960142 0.279511
    outer loop
      vertex 0 27.3776 -10.7725
      vertex 3 27.4215 -10.6217
      vertex 0 27.4215 -10.6217
    endloop
  endfacet
  facet normal 0 -0.960142 0.279511
    outer loop
      vertex 3 27.4215 -10.6217
      vertex 0 27.3776 -10.7725
      vertex 3 27.3776 -10.7725
    endloop
  endfacet
  facet normal 0 -0.940904 0.338674
    outer loop
      vertex 0 27.3244 -10.9203
      vertex 3 27.3776 -10.7725
      vertex 0 27.3776 -10.7725
    endloop
  endfacet
  facet normal 0 -0.940904 0.338674
    outer loop
      vertex 3 27.3776 -10.7725
      vertex 0 27.3244 -10.9203
      vertex 3 27.3244 -10.9203
    endloop
  endfacet
  facet normal 0 -0.995547 0.094268
    outer loop
      vertex 0 27.4803 -10.3133
      vertex 3 27.4951 -10.157
      vertex 0 27.4951 -10.157
    endloop
  endfacet
  facet normal 0 -0.995547 0.094268
    outer loop
      vertex 3 27.4951 -10.157
      vertex 0 27.4803 -10.3133
      vertex 3 27.4803 -10.3133
    endloop
  endfacet
  facet normal 0 -0.827021 0.562171
    outer loop
      vertex 0 27.0225 -11.4695
      vertex 3 27.1108 -11.3396
      vertex 0 27.1108 -11.3396
    endloop
  endfacet
  facet normal 0 -0.827021 0.562171
    outer loop
      vertex 3 27.1108 -11.3396
      vertex 0 27.0225 -11.4695
      vertex 3 27.0225 -11.4695
    endloop
  endfacet
  facet normal 0 -0.860622 0.509244
    outer loop
      vertex 0 27.1108 -11.3396
      vertex 3 27.1908 -11.2044
      vertex 0 27.1908 -11.2044
    endloop
  endfacet
  facet normal 0 -0.860622 0.509244
    outer loop
      vertex 3 27.1908 -11.2044
      vertex 0 27.1108 -11.3396
      vertex 3 27.1108 -11.3396
    endloop
  endfacet
  facet normal 0 -0.279041 -0.960279
    outer loop
      vertex 0 25.6217 -7.57854
      vertex 3 25.7725 -7.62236
      vertex 3 25.6217 -7.57854
    endloop
  endfacet
  facet normal -0 -0.279041 -0.960279
    outer loop
      vertex 3 25.7725 -7.62236
      vertex 0 25.6217 -7.57854
      vertex 0 25.7725 -7.62236
    endloop
  endfacet
  facet normal 0 -0.6129 -0.790161
    outer loop
      vertex 0 26.4695 -7.97746
      vertex 3 26.5936 -8.07372
      vertex 3 26.4695 -7.97746
    endloop
  endfacet
  facet normal -0 -0.6129 -0.790161
    outer loop
      vertex 3 26.5936 -8.07372
      vertex 0 26.4695 -7.97746
      vertex 0 26.5936 -8.07372
    endloop
  endfacet
  facet normal 0 -0.860606 -0.509272
    outer loop
      vertex 0 27.1908 -8.79562
      vertex 3 27.1108 -8.66043
      vertex 0 27.1108 -8.66043
    endloop
  endfacet
  facet normal 0 -0.860606 -0.509272
    outer loop
      vertex 3 27.1108 -8.66043
      vertex 0 27.1908 -8.79562
      vertex 3 27.1908 -8.79562
    endloop
  endfacet
  facet normal 0 -0.940882 -0.338735
    outer loop
      vertex 0 27.3776 -9.22746
      vertex 3 27.3244 -9.07969
      vertex 0 27.3244 -9.07969
    endloop
  endfacet
  facet normal 0 -0.940882 -0.338735
    outer loop
      vertex 3 27.3244 -9.07969
      vertex 0 27.3776 -9.22746
      vertex 3 27.3776 -9.22746
    endloop
  endfacet
  facet normal 0 -0.987657 -0.15663
    outer loop
      vertex 0 27.4803 -9.68667
      vertex 3 27.4557 -9.53155
      vertex 0 27.4557 -9.53155
    endloop
  endfacet
  facet normal 0 -0.987657 -0.15663
    outer loop
      vertex 3 27.4557 -9.53155
      vertex 0 27.4803 -9.68667
      vertex 3 27.4803 -9.68667
    endloop
  endfacet
  facet normal 0 0.891093 0.453821
    outer loop
      vertex 3 22.8092 -11.2044
      vertex 0 22.7379 -11.0644
      vertex 3 22.7379 -11.0644
    endloop
  endfacet
  facet normal 0 0.891093 0.453821
    outer loop
      vertex 0 22.7379 -11.0644
      vertex 3 22.8092 -11.2044
      vertex 0 22.8092 -11.2044
    endloop
  endfacet
  facet normal 0 0.860622 0.509244
    outer loop
      vertex 3 22.8892 -11.3396
      vertex 0 22.8092 -11.2044
      vertex 3 22.8092 -11.2044
    endloop
  endfacet
  facet normal 0 0.860622 0.509244
    outer loop
      vertex 0 22.8092 -11.2044
      vertex 3 22.8892 -11.3396
      vertex 0 22.8892 -11.3396
    endloop
  endfacet
  facet normal -0 0.396839 0.917888
    outer loop
      vertex 0 24.0797 -12.3244
      vertex 3 23.9356 -12.2621
      vertex 3 24.0797 -12.3244
    endloop
  endfacet
  facet normal 0 0.396839 0.917888
    outer loop
      vertex 3 23.9356 -12.2621
      vertex 0 24.0797 -12.3244
      vertex 0 23.9356 -12.2621
    endloop
  endfacet
  facet normal 0 0.960147 -0.279494
    outer loop
      vertex 3 22.5785 -9.37827
      vertex 0 22.6224 -9.22746
      vertex 3 22.6224 -9.22746
    endloop
  endfacet
  facet normal 0 0.960147 -0.279494
    outer loop
      vertex 0 22.6224 -9.22746
      vertex 3 22.5785 -9.37827
      vertex 0 22.5785 -9.37827
    endloop
  endfacet
  facet normal 0 0.790346 -0.612661
    outer loop
      vertex 3 22.9775 -8.53054
      vertex 0 23.0737 -8.40644
      vertex 3 23.0737 -8.40644
    endloop
  endfacet
  facet normal 0 0.790346 -0.612661
    outer loop
      vertex 0 23.0737 -8.40644
      vertex 3 22.9775 -8.53054
      vertex 0 22.9775 -8.53054
    endloop
  endfacet
  facet normal 0 0.827001 -0.5622
    outer loop
      vertex 3 22.8892 -8.66043
      vertex 0 22.9775 -8.53054
      vertex 3 22.9775 -8.53054
    endloop
  endfacet
  facet normal 0 0.827001 -0.5622
    outer loop
      vertex 0 22.9775 -8.53054
      vertex 3 22.8892 -8.66043
      vertex 0 22.8892 -8.66043
    endloop
  endfacet
  facet normal 0 0.860606 -0.509272
    outer loop
      vertex 3 22.8092 -8.79562
      vertex 0 22.8892 -8.66043
      vertex 3 22.8892 -8.66043
    endloop
  endfacet
  facet normal 0 0.860606 -0.509272
    outer loop
      vertex 0 22.8892 -8.66043
      vertex 3 22.8092 -8.79562
      vertex 0 22.8092 -8.79562
    endloop
  endfacet
  facet normal 0 0.562084 -0.82708
    outer loop
      vertex 0 23.5305 -7.97746
      vertex 3 23.6604 -7.88918
      vertex 3 23.5305 -7.97746
    endloop
  endfacet
  facet normal 0 0.562084 -0.82708
    outer loop
      vertex 3 23.6604 -7.88918
      vertex 0 23.5305 -7.97746
      vertex 0 23.6604 -7.88918
    endloop
  endfacet
  facet normal 0 0.453821 -0.891093
    outer loop
      vertex 0 23.7956 -7.80923
      vertex 3 23.9356 -7.73793
      vertex 3 23.7956 -7.80923
    endloop
  endfacet
  facet normal 0 0.453821 -0.891093
    outer loop
      vertex 3 23.9356 -7.73793
      vertex 0 23.7956 -7.80923
      vertex 0 23.9356 -7.73793
    endloop
  endfacet
  facet normal 0 0.661331 -0.750094
    outer loop
      vertex 0 23.2886 -8.17758
      vertex 3 23.4064 -8.07372
      vertex 3 23.2886 -8.17758
    endloop
  endfacet
  facet normal 0 0.661331 -0.750094
    outer loop
      vertex 3 23.4064 -8.07372
      vertex 0 23.2886 -8.17758
      vertex 0 23.4064 -8.07372
    endloop
  endfacet
  facet normal 0 0.397214 -0.917726
    outer loop
      vertex 0 23.9356 -7.73793
      vertex 3 24.0797 -7.67556
      vertex 3 23.9356 -7.73793
    endloop
  endfacet
  facet normal 0 0.397214 -0.917726
    outer loop
      vertex 3 24.0797 -7.67556
      vertex 0 23.9356 -7.73793
      vertex 0 24.0797 -7.67556
    endloop
  endfacet
  facet normal 0 0.156365 -0.987699
    outer loop
      vertex 0 24.5315 -7.54428
      vertex 3 24.6867 -7.51971
      vertex 3 24.5315 -7.54428
    endloop
  endfacet
  facet normal 0 0.156365 -0.987699
    outer loop
      vertex 3 24.6867 -7.51971
      vertex 0 24.5315 -7.54428
      vertex 0 24.6867 -7.51971
    endloop
  endfacet
  facet normal 0 -0.094268 0.995547
    outer loop
      vertex 0 25.3133 -12.4803
      vertex 3 25.157 -12.4951
      vertex 3 25.3133 -12.4803
    endloop
  endfacet
  facet normal 0 -0.094268 0.995547
    outer loop
      vertex 3 25.157 -12.4951
      vertex 0 25.3133 -12.4803
      vertex 0 25.157 -12.4951
    endloop
  endfacet
  facet normal 0 -0.217875 0.975977
    outer loop
      vertex 0 25.6217 -12.4215
      vertex 3 25.4685 -12.4557
      vertex 3 25.6217 -12.4215
    endloop
  endfacet
  facet normal 0 -0.217875 0.975977
    outer loop
      vertex 3 25.4685 -12.4557
      vertex 0 25.6217 -12.4215
      vertex 0 25.4685 -12.4557
    endloop
  endfacet
  facet normal 0 -0.396839 0.917888
    outer loop
      vertex 0 26.0644 -12.2621
      vertex 3 25.9203 -12.3244
      vertex 3 26.0644 -12.2621
    endloop
  endfacet
  facet normal 0 -0.396839 0.917888
    outer loop
      vertex 3 25.9203 -12.3244
      vertex 0 26.0644 -12.2621
      vertex 0 25.9203 -12.3244
    endloop
  endfacet
  facet normal 0 -0.612661 0.790346
    outer loop
      vertex 0 26.5936 -11.9263
      vertex 3 26.4695 -12.0225
      vertex 3 26.5936 -11.9263
    endloop
  endfacet
  facet normal 0 -0.612661 0.790346
    outer loop
      vertex 3 26.4695 -12.0225
      vertex 0 26.5936 -11.9263
      vertex 0 26.4695 -12.0225
    endloop
  endfacet
  facet normal 0 -0.661474 0.749968
    outer loop
      vertex 0 26.7114 -11.8224
      vertex 3 26.5936 -11.9263
      vertex 3 26.7114 -11.8224
    endloop
  endfacet
  facet normal 0 -0.661474 0.749968
    outer loop
      vertex 3 26.5936 -11.9263
      vertex 0 26.7114 -11.8224
      vertex 0 26.5936 -11.9263
    endloop
  endfacet
  facet normal 0 -0.509244 0.860622
    outer loop
      vertex 0 26.3396 -12.1108
      vertex 3 26.2044 -12.1908
      vertex 3 26.3396 -12.1108
    endloop
  endfacet
  facet normal 0 -0.509244 0.860622
    outer loop
      vertex 3 26.2044 -12.1908
      vertex 0 26.3396 -12.1108
      vertex 0 26.2044 -12.1908
    endloop
  endfacet
  facet normal 0 -0.98767 0.156551
    outer loop
      vertex 0 27.4557 -10.4685
      vertex 3 27.4803 -10.3133
      vertex 0 27.4803 -10.3133
    endloop
  endfacet
  facet normal 0 -0.98767 0.156551
    outer loop
      vertex 3 27.4803 -10.3133
      vertex 0 27.4557 -10.4685
      vertex 3 27.4557 -10.4685
    endloop
  endfacet
  facet normal 0 -0.999513 0.031195
    outer loop
      vertex 0 27.4951 -10.157
      vertex 3 27.5 -10
      vertex 0 27.5 -10
    endloop
  endfacet
  facet normal 0 -0.999513 0.031195
    outer loop
      vertex 3 27.5 -10
      vertex 0 27.4951 -10.157
      vertex 3 27.4951 -10.157
    endloop
  endfacet
  facet normal 0 -0.891093 0.453821
    outer loop
      vertex 0 27.1908 -11.2044
      vertex 3 27.2621 -11.0644
      vertex 0 27.2621 -11.0644
    endloop
  endfacet
  facet normal 0 -0.891093 0.453821
    outer loop
      vertex 3 27.2621 -11.0644
      vertex 0 27.1908 -11.2044
      vertex 3 27.1908 -11.2044
    endloop
  endfacet
  facet normal 0 -0.749968 0.661474
    outer loop
      vertex 0 26.8224 -11.7114
      vertex 3 26.9263 -11.5936
      vertex 0 26.9263 -11.5936
    endloop
  endfacet
  facet normal 0 -0.749968 0.661474
    outer loop
      vertex 3 26.9263 -11.5936
      vertex 0 26.8224 -11.7114
      vertex 3 26.8224 -11.7114
    endloop
  endfacet
  facet normal 0 -0.0941418 -0.995559
    outer loop
      vertex 0 25.157 -7.50493
      vertex 3 25.3133 -7.51971
      vertex 3 25.157 -7.50493
    endloop
  endfacet
  facet normal -0 -0.0941418 -0.995559
    outer loop
      vertex 3 25.3133 -7.51971
      vertex 0 25.157 -7.50493
      vertex 0 25.3133 -7.51971
    endloop
  endfacet
  facet normal 0 -0.661331 -0.750094
    outer loop
      vertex 0 26.5936 -8.07372
      vertex 3 26.7114 -8.17758
      vertex 3 26.5936 -8.07372
    endloop
  endfacet
  facet normal -0 -0.661331 -0.750094
    outer loop
      vertex 3 26.7114 -8.17758
      vertex 0 26.5936 -8.07372
      vertex 0 26.7114 -8.17758
    endloop
  endfacet
  facet normal 0 -0.397214 -0.917726
    outer loop
      vertex 0 25.9203 -7.67556
      vertex 3 26.0644 -7.73793
      vertex 3 25.9203 -7.67556
    endloop
  endfacet
  facet normal -0 -0.397214 -0.917726
    outer loop
      vertex 3 26.0644 -7.73793
      vertex 0 25.9203 -7.67556
      vertex 0 26.0644 -7.73793
    endloop
  endfacet
  facet normal 0 -0.453821 -0.891093
    outer loop
      vertex 0 26.0644 -7.73793
      vertex 3 26.2044 -7.80923
      vertex 3 26.0644 -7.73793
    endloop
  endfacet
  facet normal -0 -0.453821 -0.891093
    outer loop
      vertex 3 26.2044 -7.80923
      vertex 0 26.0644 -7.73793
      vertex 0 26.2044 -7.80923
    endloop
  endfacet
  facet normal 0 -0.338674 -0.940904
    outer loop
      vertex 0 25.7725 -7.62236
      vertex 3 25.9203 -7.67556
      vertex 3 25.7725 -7.62236
    endloop
  endfacet
  facet normal -0 -0.338674 -0.940904
    outer loop
      vertex 3 25.9203 -7.67556
      vertex 0 25.7725 -7.62236
      vertex 0 25.9203 -7.67556
    endloop
  endfacet
  facet normal 0 -0.218239 -0.975895
    outer loop
      vertex 0 25.4685 -7.54428
      vertex 3 25.6217 -7.57854
      vertex 3 25.4685 -7.54428
    endloop
  endfacet
  facet normal -0 -0.218239 -0.975895
    outer loop
      vertex 3 25.6217 -7.57854
      vertex 0 25.4685 -7.54428
      vertex 0 25.6217 -7.57854
    endloop
  endfacet
  facet normal 0 -0.0313858 -0.999507
    outer loop
      vertex 0 25 -7.5
      vertex 3 25.157 -7.50493
      vertex 3 25 -7.5
    endloop
  endfacet
  facet normal -0 -0.0313858 -0.999507
    outer loop
      vertex 3 25.157 -7.50493
      vertex 0 25 -7.5
      vertex 0 25.157 -7.50493
    endloop
  endfacet
  facet normal 0 -0.790346 -0.612661
    outer loop
      vertex 0 27.0225 -8.53054
      vertex 3 26.9263 -8.40644
      vertex 0 26.9263 -8.40644
    endloop
  endfacet
  facet normal 0 -0.790346 -0.612661
    outer loop
      vertex 3 26.9263 -8.40644
      vertex 0 27.0225 -8.53054
      vertex 3 27.0225 -8.53054
    endloop
  endfacet
  facet normal 0 -0.891001 -0.454001
    outer loop
      vertex 0 27.2621 -8.93555
      vertex 3 27.1908 -8.79562
      vertex 0 27.1908 -8.79562
    endloop
  endfacet
  facet normal 0 -0.891001 -0.454001
    outer loop
      vertex 3 27.1908 -8.79562
      vertex 0 27.2621 -8.93555
      vertex 3 27.2621 -8.93555
    endloop
  endfacet
  facet normal 0 -0.827001 -0.5622
    outer loop
      vertex 0 27.1108 -8.66043
      vertex 3 27.0225 -8.53054
      vertex 0 27.0225 -8.53054
    endloop
  endfacet
  facet normal 0 -0.827001 -0.5622
    outer loop
      vertex 3 27.0225 -8.53054
      vertex 0 27.1108 -8.66043
      vertex 3 27.1108 -8.66043
    endloop
  endfacet
  facet normal 0 -0.749996 -0.661443
    outer loop
      vertex 0 26.9263 -8.40644
      vertex 3 26.8224 -8.28863
      vertex 0 26.8224 -8.28863
    endloop
  endfacet
  facet normal 0 -0.749996 -0.661443
    outer loop
      vertex 3 26.8224 -8.28863
      vertex 0 26.9263 -8.40644
      vertex 3 26.9263 -8.40644
    endloop
  endfacet
  facet normal 0 -0.99555 -0.0942382
    outer loop
      vertex 0 27.4951 -9.84302
      vertex 3 27.4803 -9.68667
      vertex 0 27.4803 -9.68667
    endloop
  endfacet
  facet normal 0 -0.99555 -0.0942382
    outer loop
      vertex 3 27.4803 -9.68667
      vertex 0 27.4951 -9.84302
      vertex 3 27.4951 -9.84302
    endloop
  endfacet
  facet normal -0 0.031195 0.999513
    outer loop
      vertex 0 25 -12.5
      vertex 3 24.843 -12.4951
      vertex 3 25 -12.5
    endloop
  endfacet
  facet normal 0 0.031195 0.999513
    outer loop
      vertex 3 24.843 -12.4951
      vertex 0 25 -12.5
      vertex 0 24.843 -12.4951
    endloop
  endfacet
  facet normal 0 0.995547 0.094268
    outer loop
      vertex 3 22.5197 -10.3133
      vertex 0 22.5049 -10.157
      vertex 3 22.5049 -10.157
    endloop
  endfacet
  facet normal 0 0.995547 0.094268
    outer loop
      vertex 0 22.5049 -10.157
      vertex 3 22.5197 -10.3133
      vertex 0 22.5197 -10.3133
    endloop
  endfacet
  facet normal 0 0.975977 0.217875
    outer loop
      vertex 3 22.5785 -10.6217
      vertex 0 22.5443 -10.4685
      vertex 3 22.5443 -10.4685
    endloop
  endfacet
  facet normal 0 0.975977 0.217875
    outer loop
      vertex 0 22.5443 -10.4685
      vertex 3 22.5785 -10.6217
      vertex 0 22.5785 -10.6217
    endloop
  endfacet
  facet normal 0 0.917888 0.396839
    outer loop
      vertex 3 22.7379 -11.0644
      vertex 0 22.6756 -10.9203
      vertex 3 22.6756 -10.9203
    endloop
  endfacet
  facet normal 0 0.917888 0.396839
    outer loop
      vertex 0 22.6756 -10.9203
      vertex 3 22.7379 -11.0644
      vertex 0 22.7379 -11.0644
    endloop
  endfacet
  facet normal 0 0.940904 0.338674
    outer loop
      vertex 3 22.6756 -10.9203
      vertex 0 22.6224 -10.7725
      vertex 3 22.6224 -10.7725
    endloop
  endfacet
  facet normal 0 0.940904 0.338674
    outer loop
      vertex 0 22.6224 -10.7725
      vertex 3 22.6756 -10.9203
      vertex 0 22.6756 -10.9203
    endloop
  endfacet
  facet normal 0 0.790346 0.612661
    outer loop
      vertex 3 23.0737 -11.5936
      vertex 0 22.9775 -11.4695
      vertex 3 22.9775 -11.4695
    endloop
  endfacet
  facet normal 0 0.790346 0.612661
    outer loop
      vertex 0 22.9775 -11.4695
      vertex 3 23.0737 -11.5936
      vertex 0 23.0737 -11.5936
    endloop
  endfacet
  facet normal -0 0.562171 0.827021
    outer loop
      vertex 0 23.6604 -12.1108
      vertex 3 23.5305 -12.0225
      vertex 3 23.6604 -12.1108
    endloop
  endfacet
  facet normal 0 0.562171 0.827021
    outer loop
      vertex 3 23.5305 -12.0225
      vertex 0 23.6604 -12.1108
      vertex 0 23.5305 -12.0225
    endloop
  endfacet
  facet normal -0 0.661474 0.749968
    outer loop
      vertex 0 23.4064 -11.9263
      vertex 3 23.2886 -11.8224
      vertex 3 23.4064 -11.9263
    endloop
  endfacet
  facet normal 0 0.661474 0.749968
    outer loop
      vertex 3 23.2886 -11.8224
      vertex 0 23.4064 -11.9263
      vertex 0 23.2886 -11.8224
    endloop
  endfacet
  facet normal -0 0.612661 0.790346
    outer loop
      vertex 0 23.5305 -12.0225
      vertex 3 23.4064 -11.9263
      vertex 3 23.5305 -12.0225
    endloop
  endfacet
  facet normal 0 0.612661 0.790346
    outer loop
      vertex 3 23.4064 -11.9263
      vertex 0 23.5305 -12.0225
      vertex 0 23.4064 -11.9263
    endloop
  endfacet
  facet normal -0 0.453821 0.891093
    outer loop
      vertex 0 23.9356 -12.2621
      vertex 3 23.7956 -12.1908
      vertex 3 23.9356 -12.2621
    endloop
  endfacet
  facet normal 0 0.453821 0.891093
    outer loop
      vertex 3 23.7956 -12.1908
      vertex 0 23.9356 -12.2621
      vertex 0 23.7956 -12.1908
    endloop
  endfacet
  facet normal 0 0.99555 -0.0942382
    outer loop
      vertex 3 22.5049 -9.84302
      vertex 0 22.5197 -9.68667
      vertex 3 22.5197 -9.68667
    endloop
  endfacet
  facet normal 0 0.99555 -0.0942382
    outer loop
      vertex 0 22.5197 -9.68667
      vertex 3 22.5049 -9.84302
      vertex 0 22.5049 -9.84302
    endloop
  endfacet
  facet normal 0 0.749996 -0.661443
    outer loop
      vertex 3 23.0737 -8.40644
      vertex 0 23.1776 -8.28863
      vertex 3 23.1776 -8.28863
    endloop
  endfacet
  facet normal 0 0.749996 -0.661443
    outer loop
      vertex 0 23.1776 -8.28863
      vertex 3 23.0737 -8.40644
      vertex 0 23.0737 -8.40644
    endloop
  endfacet
  facet normal 0 0.917929 -0.396746
    outer loop
      vertex 3 22.6756 -9.07969
      vertex 0 22.7379 -8.93555
      vertex 3 22.7379 -8.93555
    endloop
  endfacet
  facet normal 0 0.917929 -0.396746
    outer loop
      vertex 0 22.7379 -8.93555
      vertex 3 22.6756 -9.07969
      vertex 0 22.6756 -9.07969
    endloop
  endfacet
  facet normal 0 0.891001 -0.454001
    outer loop
      vertex 3 22.7379 -8.93555
      vertex 0 22.8092 -8.79562
      vertex 3 22.8092 -8.79562
    endloop
  endfacet
  facet normal 0 0.891001 -0.454001
    outer loop
      vertex 0 22.8092 -8.79562
      vertex 3 22.7379 -8.93555
      vertex 0 22.7379 -8.93555
    endloop
  endfacet
  facet normal 0 0.976001 -0.217766
    outer loop
      vertex 3 22.5443 -9.53155
      vertex 0 22.5785 -9.37827
      vertex 3 22.5785 -9.37827
    endloop
  endfacet
  facet normal 0 0.976001 -0.217766
    outer loop
      vertex 0 22.5785 -9.37827
      vertex 3 22.5443 -9.53155
      vertex 0 22.5443 -9.53155
    endloop
  endfacet
  facet normal 0 0.987657 -0.15663
    outer loop
      vertex 3 22.5197 -9.68667
      vertex 0 22.5443 -9.53155
      vertex 3 22.5443 -9.53155
    endloop
  endfacet
  facet normal 0 0.987657 -0.15663
    outer loop
      vertex 0 22.5443 -9.53155
      vertex 3 22.5197 -9.68667
      vertex 0 22.5197 -9.68667
    endloop
  endfacet
  facet normal 0 0.999513 -0.031199
    outer loop
      vertex 3 22.5 -10
      vertex 0 22.5049 -9.84302
      vertex 3 22.5049 -9.84302
    endloop
  endfacet
  facet normal 0 0.999513 -0.031199
    outer loop
      vertex 0 22.5049 -9.84302
      vertex 3 22.5 -10
      vertex 0 22.5 -10
    endloop
  endfacet
  facet normal 0 0.509008 -0.860762
    outer loop
      vertex 0 23.6604 -7.88918
      vertex 3 23.7956 -7.80923
      vertex 3 23.6604 -7.88918
    endloop
  endfacet
  facet normal 0 0.509008 -0.860762
    outer loop
      vertex 3 23.7956 -7.80923
      vertex 0 23.6604 -7.88918
      vertex 0 23.7956 -7.80923
    endloop
  endfacet
  facet normal 0 0.6129 -0.790161
    outer loop
      vertex 0 23.4064 -8.07372
      vertex 3 23.5305 -7.97746
      vertex 3 23.4064 -8.07372
    endloop
  endfacet
  facet normal 0 0.6129 -0.790161
    outer loop
      vertex 3 23.5305 -7.97746
      vertex 0 23.4064 -8.07372
      vertex 0 23.5305 -7.97746
    endloop
  endfacet
  facet normal 0 0.279041 -0.960279
    outer loop
      vertex 0 24.2275 -7.62236
      vertex 3 24.3783 -7.57854
      vertex 3 24.2275 -7.62236
    endloop
  endfacet
  facet normal 0 0.279041 -0.960279
    outer loop
      vertex 3 24.3783 -7.57854
      vertex 0 24.2275 -7.62236
      vertex 0 24.3783 -7.57854
    endloop
  endfacet
  facet normal 0 0.338674 -0.940904
    outer loop
      vertex 0 24.0797 -7.67556
      vertex 3 24.2275 -7.62236
      vertex 3 24.0797 -7.67556
    endloop
  endfacet
  facet normal 0 0.338674 -0.940904
    outer loop
      vertex 3 24.2275 -7.62236
      vertex 0 24.0797 -7.67556
      vertex 0 24.2275 -7.62236
    endloop
  endfacet
  facet normal 0 0.0941418 -0.995559
    outer loop
      vertex 0 24.6867 -7.51971
      vertex 3 24.843 -7.50493
      vertex 3 24.6867 -7.51971
    endloop
  endfacet
  facet normal 0 0.0941418 -0.995559
    outer loop
      vertex 3 24.843 -7.50493
      vertex 0 24.6867 -7.51971
      vertex 0 24.843 -7.50493
    endloop
  endfacet
  facet normal 0 -0.156551 0.98767
    outer loop
      vertex 0 25.4685 -12.4557
      vertex 3 25.3133 -12.4803
      vertex 3 25.4685 -12.4557
    endloop
  endfacet
  facet normal 0 -0.156551 0.98767
    outer loop
      vertex 3 25.3133 -12.4803
      vertex 0 25.4685 -12.4557
      vertex 0 25.3133 -12.4803
    endloop
  endfacet
  facet normal 0 -0.338674 0.940904
    outer loop
      vertex 0 25.9203 -12.3244
      vertex 3 25.7725 -12.3776
      vertex 3 25.9203 -12.3244
    endloop
  endfacet
  facet normal 0 -0.338674 0.940904
    outer loop
      vertex 3 25.7725 -12.3776
      vertex 0 25.9203 -12.3244
      vertex 0 25.7725 -12.3776
    endloop
  endfacet
  facet normal 0 -0.975977 0.217875
    outer loop
      vertex 0 27.4215 -10.6217
      vertex 3 27.4557 -10.4685
      vertex 0 27.4557 -10.4685
    endloop
  endfacet
  facet normal 0 -0.975977 0.217875
    outer loop
      vertex 3 27.4557 -10.4685
      vertex 0 27.4215 -10.6217
      vertex 3 27.4215 -10.6217
    endloop
  endfacet
  facet normal 0 -0.790346 0.612661
    outer loop
      vertex 0 26.9263 -11.5936
      vertex 3 27.0225 -11.4695
      vertex 0 27.0225 -11.4695
    endloop
  endfacet
  facet normal 0 -0.790346 0.612661
    outer loop
      vertex 3 27.0225 -11.4695
      vertex 0 26.9263 -11.5936
      vertex 3 26.9263 -11.5936
    endloop
  endfacet
  facet normal 0 -0.156365 -0.987699
    outer loop
      vertex 0 25.3133 -7.51971
      vertex 3 25.4685 -7.54428
      vertex 3 25.3133 -7.51971
    endloop
  endfacet
  facet normal -0 -0.156365 -0.987699
    outer loop
      vertex 3 25.4685 -7.54428
      vertex 0 25.3133 -7.51971
      vertex 0 25.4685 -7.54428
    endloop
  endfacet
  facet normal 0 -0.960147 -0.279494
    outer loop
      vertex 0 27.4215 -9.37827
      vertex 3 27.3776 -9.22746
      vertex 0 27.3776 -9.22746
    endloop
  endfacet
  facet normal 0 -0.960147 -0.279494
    outer loop
      vertex 3 27.3776 -9.22746
      vertex 0 27.4215 -9.37827
      vertex 3 27.4215 -9.37827
    endloop
  endfacet
  facet normal -0 0.156551 0.98767
    outer loop
      vertex 0 24.6867 -12.4803
      vertex 3 24.5315 -12.4557
      vertex 3 24.6867 -12.4803
    endloop
  endfacet
  facet normal 0 0.156551 0.98767
    outer loop
      vertex 3 24.5315 -12.4557
      vertex 0 24.6867 -12.4803
      vertex 0 24.5315 -12.4557
    endloop
  endfacet
  facet normal 0 0.98767 0.156551
    outer loop
      vertex 3 22.5443 -10.4685
      vertex 0 22.5197 -10.3133
      vertex 3 22.5197 -10.3133
    endloop
  endfacet
  facet normal 0 0.98767 0.156551
    outer loop
      vertex 0 22.5197 -10.3133
      vertex 3 22.5443 -10.4685
      vertex 0 22.5443 -10.4685
    endloop
  endfacet
  facet normal 0 0.749968 0.661474
    outer loop
      vertex 3 23.1776 -11.7114
      vertex 0 23.0737 -11.5936
      vertex 3 23.0737 -11.5936
    endloop
  endfacet
  facet normal 0 0.749968 0.661474
    outer loop
      vertex 0 23.0737 -11.5936
      vertex 3 23.1776 -11.7114
      vertex 0 23.1776 -11.7114
    endloop
  endfacet
  facet normal 0 0.827021 0.562171
    outer loop
      vertex 3 22.9775 -11.4695
      vertex 0 22.8892 -11.3396
      vertex 3 22.8892 -11.3396
    endloop
  endfacet
  facet normal 0 0.827021 0.562171
    outer loop
      vertex 0 22.8892 -11.3396
      vertex 3 22.9775 -11.4695
      vertex 0 22.9775 -11.4695
    endloop
  endfacet
  facet normal -0 0.279511 0.960142
    outer loop
      vertex 0 24.3783 -12.4215
      vertex 3 24.2275 -12.3776
      vertex 3 24.3783 -12.4215
    endloop
  endfacet
  facet normal 0 0.279511 0.960142
    outer loop
      vertex 3 24.2275 -12.3776
      vertex 0 24.3783 -12.4215
      vertex 0 24.2275 -12.3776
    endloop
  endfacet
  facet normal 0 0.999513 0.031195
    outer loop
      vertex 3 22.5049 -10.157
      vertex 0 22.5 -10
      vertex 3 22.5 -10
    endloop
  endfacet
  facet normal 0 0.999513 0.031195
    outer loop
      vertex 0 22.5 -10
      vertex 3 22.5049 -10.157
      vertex 0 22.5049 -10.157
    endloop
  endfacet
  facet normal -0 0.094268 0.995547
    outer loop
      vertex 0 24.843 -12.4951
      vertex 3 24.6867 -12.4803
      vertex 3 24.843 -12.4951
    endloop
  endfacet
  facet normal 0 0.094268 0.995547
    outer loop
      vertex 3 24.6867 -12.4803
      vertex 0 24.843 -12.4951
      vertex 0 24.6867 -12.4803
    endloop
  endfacet
  facet normal -0 0.217875 0.975977
    outer loop
      vertex 0 24.5315 -12.4557
      vertex 3 24.3783 -12.4215
      vertex 3 24.5315 -12.4557
    endloop
  endfacet
  facet normal 0 0.217875 0.975977
    outer loop
      vertex 3 24.3783 -12.4215
      vertex 0 24.5315 -12.4557
      vertex 0 24.3783 -12.4215
    endloop
  endfacet
  facet normal 1 -0 0
    outer loop
      vertex 3 3 8
      vertex 3 47 3
      vertex 3 47 8
    endloop
  endfacet
  facet normal 1 0 0
    outer loop
      vertex 3 47 3
      vertex 3 3 8
      vertex 3 3 3
    endloop
  endfacet
  facet normal 0 -1 0
    outer loop
      vertex 3 47 3
      vertex 28 47 8
      vertex 3 47 8
    endloop
  endfacet
  facet normal 0 -1 -0
    outer loop
      vertex 28 47 8
      vertex 3 47 3
      vertex 28 47 3
    endloop
  endfacet
  facet normal 0 1 -0
    outer loop
      vertex 28 3 3
      vertex 3 3 8
      vertex 28 3 8
    endloop
  endfacet
  facet normal 0 1 0
    outer loop
      vertex 3 3 8
      vertex 28 3 3
      vertex 3 3 3
    endloop
  endfacet
endsolid OpenSCAD_Model
