solid OpenSCAD_Model
  facet normal 0 -1 0
    outer loop
      vertex 167 0 -20
      vertex 180 0 -17
      vertex 167 0 -17
    endloop
  endfacet
  facet normal 0 -1 -0
    outer loop
      vertex 180 0 -17
      vertex 167 0 -20
      vertex 183 0 -17
    endloop
  endfacet
  facet normal 0 -1 0
    outer loop
      vertex 196 0 -20
      vertex 183 0 -17
      vertex 167 0 -20
    endloop
  endfacet
  facet normal 0 -1 0
    outer loop
      vertex 183 0 -17
      vertex 196 0 -20
      vertex 196 0 -17
    endloop
  endfacet
  facet normal 0 -1 0
    outer loop
      vertex 0 0 3
      vertex 3 0 0
      vertex 71 0 3
    endloop
  endfacet
  facet normal 0 -1 0
    outer loop
      vertex 0 0 -19
      vertex 3 0 0
      vertex 0 0 3
    endloop
  endfacet
  facet normal 0 -1 -0
    outer loop
      vertex 3 0 0
      vertex 0 0 -19
      vertex 3 0 -19
    endloop
  endfacet
  facet normal 0 -1 0
    outer loop
      vertex 71 0 50
      vertex 74 0 44
      vertex 183 0 50
    endloop
  endfacet
  facet normal 0 -1 0
    outer loop
      vertex 71 0 3
      vertex 74 0 44
      vertex 71 0 50
    endloop
  endfacet
  facet normal 0 -1 0
    outer loop
      vertex 71 0 3
      vertex 74 0 0
      vertex 74 0 44
    endloop
  endfacet
  facet normal 0 -1 0
    outer loop
      vertex 74 0 0
      vertex 71 0 3
      vertex 3 0 0
    endloop
  endfacet
  facet normal 0 -1 0
    outer loop
      vertex 180 0 44
      vertex 183 0 50
      vertex 74 0 44
    endloop
  endfacet
  facet normal 0 -1 0
    outer loop
      vertex 183 0 -17
      vertex 180 0 44
      vertex 180 0 -17
    endloop
  endfacet
  facet normal 0 -1 0
    outer loop
      vertex 180 0 44
      vertex 183 0 -17
      vertex 183 0 50
    endloop
  endfacet
  facet normal -0 0 1
    outer loop
      vertex 73 11 47
      vertex 181 2 47
      vertex 181 11 47
    endloop
  endfacet
  facet normal 0 0 1
    outer loop
      vertex 181 2 47
      vertex 73 11 47
      vertex 73 2 47
    endloop
  endfacet
  facet normal 0 1 -0
    outer loop
      vertex 196 13 -20
      vertex 183 13 -17
      vertex 196 13 -17
    endloop
  endfacet
  facet normal 0 1 0
    outer loop
      vertex 183 13 -17
      vertex 196 13 -20
      vertex 180 13 -17
    endloop
  endfacet
  facet normal 0 1 0
    outer loop
      vertex 167 13 -20
      vertex 180 13 -17
      vertex 196 13 -20
    endloop
  endfacet
  facet normal 0 1 0
    outer loop
      vertex 180 13 -17
      vertex 167 13 -20
      vertex 167 13 -17
    endloop
  endfacet
  facet normal 0 1 0
    outer loop
      vertex 183 13 50
      vertex 180 13 44
      vertex 71 13 50
    endloop
  endfacet
  facet normal 0 1 -0
    outer loop
      vertex 183 13 -17
      vertex 180 13 44
      vertex 183 13 50
    endloop
  endfacet
  facet normal 0 1 0
    outer loop
      vertex 180 13 44
      vertex 183 13 -17
      vertex 180 13 -17
    endloop
  endfacet
  facet normal 0 1 -0
    outer loop
      vertex 74 13 44
      vertex 71 13 50
      vertex 180 13 44
    endloop
  endfacet
  facet normal 0 1 0
    outer loop
      vertex 74 13 44
      vertex 71 13 3
      vertex 71 13 50
    endloop
  endfacet
  facet normal 0 1 -0
    outer loop
      vertex 74 13 0
      vertex 71 13 3
      vertex 74 13 44
    endloop
  endfacet
  facet normal 0 1 0
    outer loop
      vertex 3 13 0
      vertex 71 13 3
      vertex 74 13 0
    endloop
  endfacet
  facet normal 0 1 0
    outer loop
      vertex 71 13 3
      vertex 3 13 0
      vertex 0 13 3
    endloop
  endfacet
  facet normal 0 1 0
    outer loop
      vertex 0 13 -19
      vertex 3 13 0
      vertex 3 13 -19
    endloop
  endfacet
  facet normal 0 1 0
    outer loop
      vertex 3 13 0
      vertex 0 13 -19
      vertex 0 13 3
    endloop
  endfacet
  facet normal -1 0 0
    outer loop
      vertex 71 0 3
      vertex 71 13 50
      vertex 71 13 3
    endloop
  endfacet
  facet normal -1 -0 0
    outer loop
      vertex 71 13 50
      vertex 71 0 3
      vertex 71 0 50
    endloop
  endfacet
  facet normal 0 0 -1
    outer loop
      vertex 74 0 44
      vertex 180 13 44
      vertex 180 0 44
    endloop
  endfacet
  facet normal -0 0 -1
    outer loop
      vertex 180 13 44
      vertex 74 0 44
      vertex 74 13 44
    endloop
  endfacet
  facet normal 1 -0 0
    outer loop
      vertex 183 0 50
      vertex 183 13 -17
      vertex 183 13 50
    endloop
  endfacet
  facet normal 1 0 0
    outer loop
      vertex 183 13 -17
      vertex 183 0 50
      vertex 183 0 -17
    endloop
  endfacet
  facet normal 0 0 1
    outer loop
      vertex 183 13 50
      vertex 181 11 50
      vertex 183 0 50
    endloop
  endfacet
  facet normal 0 0 1
    outer loop
      vertex 183 13 50
      vertex 73 11 50
      vertex 181 11 50
    endloop
  endfacet
  facet normal 0 0 1
    outer loop
      vertex 73 11 50
      vertex 71 13 50
      vertex 73 2 50
    endloop
  endfacet
  facet normal -0 0 1
    outer loop
      vertex 71 13 50
      vertex 73 11 50
      vertex 183 13 50
    endloop
  endfacet
  facet normal -0 0 1
    outer loop
      vertex 181 2 50
      vertex 183 0 50
      vertex 181 11 50
    endloop
  endfacet
  facet normal -0 0 1
    outer loop
      vertex 73 2 50
      vertex 183 0 50
      vertex 181 2 50
    endloop
  endfacet
  facet normal 0 0 1
    outer loop
      vertex 73 2 50
      vertex 71 0 50
      vertex 183 0 50
    endloop
  endfacet
  facet normal 0 0 1
    outer loop
      vertex 71 0 50
      vertex 73 2 50
      vertex 71 13 50
    endloop
  endfacet
  facet normal 0 1 -0
    outer loop
      vertex 181 2 47
      vertex 73 2 50
      vertex 181 2 50
    endloop
  endfacet
  facet normal 0 1 0
    outer loop
      vertex 73 2 50
      vertex 181 2 47
      vertex 73 2 47
    endloop
  endfacet
  facet normal -1 0 0
    outer loop
      vertex 181 2 47
      vertex 181 11 50
      vertex 181 11 47
    endloop
  endfacet
  facet normal -1 -0 0
    outer loop
      vertex 181 11 50
      vertex 181 2 47
      vertex 181 2 50
    endloop
  endfacet
  facet normal 1 -0 0
    outer loop
      vertex 73 2 50
      vertex 73 11 47
      vertex 73 11 50
    endloop
  endfacet
  facet normal 1 0 0
    outer loop
      vertex 73 11 47
      vertex 73 2 50
      vertex 73 2 47
    endloop
  endfacet
  facet normal 0 -1 0
    outer loop
      vertex 73 11 47
      vertex 181 11 50
      vertex 73 11 50
    endloop
  endfacet
  facet normal 0 -1 -0
    outer loop
      vertex 181 11 50
      vertex 73 11 47
      vertex 181 11 47
    endloop
  endfacet
  facet normal -1 0 0
    outer loop
      vertex 0 8.99507 -9.84302
      vertex 0 13 -19
      vertex 0 9 -10
    endloop
  endfacet
  facet normal -1 0 0
    outer loop
      vertex 0 13 -19
      vertex 0 8.99507 -10.157
      vertex 0 9 -10
    endloop
  endfacet
  facet normal -1 0 0
    outer loop
      vertex 0 13 -19
      vertex 0 8.98029 -10.3133
      vertex 0 8.99507 -10.157
    endloop
  endfacet
  facet normal -1 0 0
    outer loop
      vertex 0 13 -19
      vertex 0 8.95572 -10.4685
      vertex 0 8.98029 -10.3133
    endloop
  endfacet
  facet normal -1 0 0
    outer loop
      vertex 0 13 -19
      vertex 0 8.92146 -10.6217
      vertex 0 8.95572 -10.4685
    endloop
  endfacet
  facet normal -1 0 0
    outer loop
      vertex 0 13 -19
      vertex 0 8.87764 -10.7725
      vertex 0 8.92146 -10.6217
    endloop
  endfacet
  facet normal -1 0 0
    outer loop
      vertex 0 13 -19
      vertex 0 8.82444 -10.9203
      vertex 0 8.87764 -10.7725
    endloop
  endfacet
  facet normal -1 0 0
    outer loop
      vertex 0 13 -19
      vertex 0 8.76207 -11.0644
      vertex 0 8.82444 -10.9203
    endloop
  endfacet
  facet normal -1 0 0
    outer loop
      vertex 0 13 -19
      vertex 0 8.69077 -11.2044
      vertex 0 8.76207 -11.0644
    endloop
  endfacet
  facet normal -1 0 0
    outer loop
      vertex 0 13 -19
      vertex 0 8.61082 -11.3396
      vertex 0 8.69077 -11.2044
    endloop
  endfacet
  facet normal -1 0 0
    outer loop
      vertex 0 13 -19
      vertex 0 8.52254 -11.4695
      vertex 0 8.61082 -11.3396
    endloop
  endfacet
  facet normal -1 0 0
    outer loop
      vertex 0 13 -19
      vertex 0 8.42628 -11.5936
      vertex 0 8.52254 -11.4695
    endloop
  endfacet
  facet normal -1 0 0
    outer loop
      vertex 0 13 -19
      vertex 0 8.32242 -11.7114
      vertex 0 8.42628 -11.5936
    endloop
  endfacet
  facet normal -1 0 0
    outer loop
      vertex 0 13 -19
      vertex 0 8.21137 -11.8224
      vertex 0 8.32242 -11.7114
    endloop
  endfacet
  facet normal -1 0 0
    outer loop
      vertex 0 13 -19
      vertex 0 8.09356 -11.9263
      vertex 0 8.21137 -11.8224
    endloop
  endfacet
  facet normal -1 0 0
    outer loop
      vertex 0 13 -19
      vertex 0 7.96946 -12.0225
      vertex 0 8.09356 -11.9263
    endloop
  endfacet
  facet normal -1 0 0
    outer loop
      vertex 0 13 -19
      vertex 0 7.83957 -12.1108
      vertex 0 7.96946 -12.0225
    endloop
  endfacet
  facet normal -1 0 0
    outer loop
      vertex 0 13 -19
      vertex 0 7.70438 -12.1908
      vertex 0 7.83957 -12.1108
    endloop
  endfacet
  facet normal -1 0 0
    outer loop
      vertex 0 13 -19
      vertex 0 7.56445 -12.2621
      vertex 0 7.70438 -12.1908
    endloop
  endfacet
  facet normal -1 0 0
    outer loop
      vertex 0 13 -19
      vertex 0 7.42031 -12.3244
      vertex 0 7.56445 -12.2621
    endloop
  endfacet
  facet normal -1 0 0
    outer loop
      vertex 0 13 -19
      vertex 0 7.27254 -12.3776
      vertex 0 7.42031 -12.3244
    endloop
  endfacet
  facet normal -1 0 0
    outer loop
      vertex 0 13 -19
      vertex 0 7.12172 -12.4215
      vertex 0 7.27254 -12.3776
    endloop
  endfacet
  facet normal -1 0 0
    outer loop
      vertex 0 13 -19
      vertex 0 6.96845 -12.4557
      vertex 0 7.12172 -12.4215
    endloop
  endfacet
  facet normal -1 0 0
    outer loop
      vertex 0 13 -19
      vertex 0 6.81333 -12.4803
      vertex 0 6.96845 -12.4557
    endloop
  endfacet
  facet normal -1 0 0
    outer loop
      vertex 0 13 -19
      vertex 0 6.65698 -12.4951
      vertex 0 6.81333 -12.4803
    endloop
  endfacet
  facet normal -1 0 0
    outer loop
      vertex 0 13 -19
      vertex 0 6.5 -12.5
      vertex 0 6.65698 -12.4951
    endloop
  endfacet
  facet normal -1 0 0
    outer loop
      vertex 0 0 -19
      vertex 0 6.5 -12.5
      vertex 0 13 -19
    endloop
  endfacet
  facet normal -1 -0 0
    outer loop
      vertex 0 6.5 -12.5
      vertex 0 0 -19
      vertex 0 6.34302 -12.4951
    endloop
  endfacet
  facet normal -1 -0 0
    outer loop
      vertex 0 6.34302 -12.4951
      vertex 0 0 -19
      vertex 0 6.18667 -12.4803
    endloop
  endfacet
  facet normal -1 -0 0
    outer loop
      vertex 0 6.18667 -12.4803
      vertex 0 0 -19
      vertex 0 6.03155 -12.4557
    endloop
  endfacet
  facet normal -1 -0 0
    outer loop
      vertex 0 6.03155 -12.4557
      vertex 0 0 -19
      vertex 0 5.87827 -12.4215
    endloop
  endfacet
  facet normal -1 -0 0
    outer loop
      vertex 0 5.87827 -12.4215
      vertex 0 0 -19
      vertex 0 5.72746 -12.3776
    endloop
  endfacet
  facet normal -1 -0 0
    outer loop
      vertex 0 5.72746 -12.3776
      vertex 0 0 -19
      vertex 0 5.57969 -12.3244
    endloop
  endfacet
  facet normal -1 -0 0
    outer loop
      vertex 0 5.57969 -12.3244
      vertex 0 0 -19
      vertex 0 5.43555 -12.2621
    endloop
  endfacet
  facet normal -1 -0 0
    outer loop
      vertex 0 5.43555 -12.2621
      vertex 0 0 -19
      vertex 0 5.29562 -12.1908
    endloop
  endfacet
  facet normal -1 -0 0
    outer loop
      vertex 0 5.29562 -12.1908
      vertex 0 0 -19
      vertex 0 5.16043 -12.1108
    endloop
  endfacet
  facet normal -1 -0 0
    outer loop
      vertex 0 5.16043 -12.1108
      vertex 0 0 -19
      vertex 0 5.03054 -12.0225
    endloop
  endfacet
  facet normal -1 -0 0
    outer loop
      vertex 0 4.00493 -10.157
      vertex 0 0 -19
      vertex 0 4 -10
    endloop
  endfacet
  facet normal -1 -0 0
    outer loop
      vertex 0 4.01971 -10.3133
      vertex 0 0 -19
      vertex 0 4.00493 -10.157
    endloop
  endfacet
  facet normal -1 -0 0
    outer loop
      vertex 0 4.04428 -10.4685
      vertex 0 0 -19
      vertex 0 4.01971 -10.3133
    endloop
  endfacet
  facet normal -1 -0 0
    outer loop
      vertex 0 4.07854 -10.6217
      vertex 0 0 -19
      vertex 0 4.04428 -10.4685
    endloop
  endfacet
  facet normal -1 -0 0
    outer loop
      vertex 0 4.12236 -10.7725
      vertex 0 0 -19
      vertex 0 4.07854 -10.6217
    endloop
  endfacet
  facet normal -1 -0 0
    outer loop
      vertex 0 4.17556 -10.9203
      vertex 0 0 -19
      vertex 0 4.12236 -10.7725
    endloop
  endfacet
  facet normal -1 -0 0
    outer loop
      vertex 0 4.23793 -11.0644
      vertex 0 0 -19
      vertex 0 4.17556 -10.9203
    endloop
  endfacet
  facet normal -1 -0 0
    outer loop
      vertex 0 4.30923 -11.2044
      vertex 0 0 -19
      vertex 0 4.23793 -11.0644
    endloop
  endfacet
  facet normal -1 -0 0
    outer loop
      vertex 0 4.38918 -11.3396
      vertex 0 0 -19
      vertex 0 4.30923 -11.2044
    endloop
  endfacet
  facet normal -1 -0 0
    outer loop
      vertex 0 4.47746 -11.4695
      vertex 0 0 -19
      vertex 0 4.38918 -11.3396
    endloop
  endfacet
  facet normal -1 -0 0
    outer loop
      vertex 0 4.57372 -11.5936
      vertex 0 0 -19
      vertex 0 4.47746 -11.4695
    endloop
  endfacet
  facet normal -1 -0 0
    outer loop
      vertex 0 4.67758 -11.7114
      vertex 0 0 -19
      vertex 0 4.57372 -11.5936
    endloop
  endfacet
  facet normal -1 -0 0
    outer loop
      vertex 0 4.78863 -11.8224
      vertex 0 0 -19
      vertex 0 4.67758 -11.7114
    endloop
  endfacet
  facet normal -1 -0 0
    outer loop
      vertex 0 4.90644 -11.9263
      vertex 0 0 -19
      vertex 0 4.78863 -11.8224
    endloop
  endfacet
  facet normal -1 -0 0
    outer loop
      vertex 0 5.03054 -12.0225
      vertex 0 0 -19
      vertex 0 4.90644 -11.9263
    endloop
  endfacet
  facet normal -1 0 0
    outer loop
      vertex 0 8.98029 -9.68667
      vertex 0 13 -19
      vertex 0 8.99507 -9.84302
    endloop
  endfacet
  facet normal -1 0 0
    outer loop
      vertex 0 13 -19
      vertex 0 8.98029 -9.68667
      vertex 0 13 3
    endloop
  endfacet
  facet normal -1 0 0
    outer loop
      vertex 0 8.95572 -9.53155
      vertex 0 13 3
      vertex 0 8.98029 -9.68667
    endloop
  endfacet
  facet normal -1 0 0
    outer loop
      vertex 0 8.92146 -9.37827
      vertex 0 13 3
      vertex 0 8.95572 -9.53155
    endloop
  endfacet
  facet normal -1 0 0
    outer loop
      vertex 0 8.87764 -9.22746
      vertex 0 13 3
      vertex 0 8.92146 -9.37827
    endloop
  endfacet
  facet normal -1 0 0
    outer loop
      vertex 0 8.82444 -9.07969
      vertex 0 13 3
      vertex 0 8.87764 -9.22746
    endloop
  endfacet
  facet normal -1 0 0
    outer loop
      vertex 0 8.76207 -8.93555
      vertex 0 13 3
      vertex 0 8.82444 -9.07969
    endloop
  endfacet
  facet normal -1 0 0
    outer loop
      vertex 0 8.69077 -8.79562
      vertex 0 13 3
      vertex 0 8.76207 -8.93555
    endloop
  endfacet
  facet normal -1 0 0
    outer loop
      vertex 0 8.61082 -8.66043
      vertex 0 13 3
      vertex 0 8.69077 -8.79562
    endloop
  endfacet
  facet normal -1 0 0
    outer loop
      vertex 0 8.52254 -8.53054
      vertex 0 13 3
      vertex 0 8.61082 -8.66043
    endloop
  endfacet
  facet normal -1 0 0
    outer loop
      vertex 0 8.42628 -8.40644
      vertex 0 13 3
      vertex 0 8.52254 -8.53054
    endloop
  endfacet
  facet normal -1 0 0
    outer loop
      vertex 0 8.32242 -8.28863
      vertex 0 13 3
      vertex 0 8.42628 -8.40644
    endloop
  endfacet
  facet normal -1 0 0
    outer loop
      vertex 0 8.21137 -8.17758
      vertex 0 13 3
      vertex 0 8.32242 -8.28863
    endloop
  endfacet
  facet normal -1 0 0
    outer loop
      vertex 0 8.09356 -8.07372
      vertex 0 13 3
      vertex 0 8.21137 -8.17758
    endloop
  endfacet
  facet normal -1 0 0
    outer loop
      vertex 0 7.96946 -7.97746
      vertex 0 13 3
      vertex 0 8.09356 -8.07372
    endloop
  endfacet
  facet normal -1 0 0
    outer loop
      vertex 0 7.83957 -7.88918
      vertex 0 13 3
      vertex 0 7.96946 -7.97746
    endloop
  endfacet
  facet normal -1 0 0
    outer loop
      vertex 0 7.70438 -7.80923
      vertex 0 13 3
      vertex 0 7.83957 -7.88918
    endloop
  endfacet
  facet normal -1 0 0
    outer loop
      vertex 0 7.56445 -7.73793
      vertex 0 13 3
      vertex 0 7.70438 -7.80923
    endloop
  endfacet
  facet normal -1 0 0
    outer loop
      vertex 0 7.42031 -7.67556
      vertex 0 13 3
      vertex 0 7.56445 -7.73793
    endloop
  endfacet
  facet normal -1 0 0
    outer loop
      vertex 0 7.27254 -7.62236
      vertex 0 13 3
      vertex 0 7.42031 -7.67556
    endloop
  endfacet
  facet normal -1 0 0
    outer loop
      vertex 0 7.12172 -7.57854
      vertex 0 13 3
      vertex 0 7.27254 -7.62236
    endloop
  endfacet
  facet normal -1 0 0
    outer loop
      vertex 0 6.96845 -7.54428
      vertex 0 13 3
      vertex 0 7.12172 -7.57854
    endloop
  endfacet
  facet normal -1 0 0
    outer loop
      vertex 0 6.81333 -7.51971
      vertex 0 13 3
      vertex 0 6.96845 -7.54428
    endloop
  endfacet
  facet normal -1 0 0
    outer loop
      vertex 0 6.65698 -7.50493
      vertex 0 13 3
      vertex 0 6.81333 -7.51971
    endloop
  endfacet
  facet normal -1 0 0
    outer loop
      vertex 0 6.5 -7.5
      vertex 0 13 3
      vertex 0 6.65698 -7.50493
    endloop
  endfacet
  facet normal -1 0 0
    outer loop
      vertex 0 0 3
      vertex 0 6.5 -7.5
      vertex 0 6.34302 -7.50493
    endloop
  endfacet
  facet normal -1 0 0
    outer loop
      vertex 0 0 3
      vertex 0 6.34302 -7.50493
      vertex 0 6.18667 -7.51971
    endloop
  endfacet
  facet normal -1 0 0
    outer loop
      vertex 0 0 3
      vertex 0 6.18667 -7.51971
      vertex 0 6.03155 -7.54428
    endloop
  endfacet
  facet normal -1 0 0
    outer loop
      vertex 0 0 3
      vertex 0 6.03155 -7.54428
      vertex 0 5.87827 -7.57854
    endloop
  endfacet
  facet normal -1 0 0
    outer loop
      vertex 0 0 3
      vertex 0 5.87827 -7.57854
      vertex 0 5.72746 -7.62236
    endloop
  endfacet
  facet normal -1 0 0
    outer loop
      vertex 0 0 3
      vertex 0 5.72746 -7.62236
      vertex 0 5.57969 -7.67556
    endloop
  endfacet
  facet normal -1 0 0
    outer loop
      vertex 0 0 3
      vertex 0 5.57969 -7.67556
      vertex 0 5.43555 -7.73793
    endloop
  endfacet
  facet normal -1 0 0
    outer loop
      vertex 0 0 3
      vertex 0 5.43555 -7.73793
      vertex 0 5.29562 -7.80923
    endloop
  endfacet
  facet normal -1 0 0
    outer loop
      vertex 0 0 3
      vertex 0 5.29562 -7.80923
      vertex 0 5.16043 -7.88918
    endloop
  endfacet
  facet normal -1 0 0
    outer loop
      vertex 0 0 3
      vertex 0 5.16043 -7.88918
      vertex 0 5.03054 -7.97746
    endloop
  endfacet
  facet normal -1 0 0
    outer loop
      vertex 0 0 3
      vertex 0 5.03054 -7.97746
      vertex 0 4.90644 -8.07372
    endloop
  endfacet
  facet normal -1 0 0
    outer loop
      vertex 0 0 3
      vertex 0 4.90644 -8.07372
      vertex 0 4.78863 -8.17758
    endloop
  endfacet
  facet normal -1 0 0
    outer loop
      vertex 0 0 3
      vertex 0 4.78863 -8.17758
      vertex 0 4.67758 -8.28863
    endloop
  endfacet
  facet normal -1 0 0
    outer loop
      vertex 0 0 3
      vertex 0 4.67758 -8.28863
      vertex 0 4.57372 -8.40644
    endloop
  endfacet
  facet normal -1 0 0
    outer loop
      vertex 0 0 3
      vertex 0 4.57372 -8.40644
      vertex 0 4.47746 -8.53054
    endloop
  endfacet
  facet normal -1 0 0
    outer loop
      vertex 0 0 -19
      vertex 0 4.00493 -9.84302
      vertex 0 4 -10
    endloop
  endfacet
  facet normal -1 0 0
    outer loop
      vertex 0 0 -19
      vertex 0 4.01971 -9.68667
      vertex 0 4.00493 -9.84302
    endloop
  endfacet
  facet normal -1 0 0
    outer loop
      vertex 0 0 3
      vertex 0 4.01971 -9.68667
      vertex 0 0 -19
    endloop
  endfacet
  facet normal -1 0 0
    outer loop
      vertex 0 4.01971 -9.68667
      vertex 0 0 3
      vertex 0 4.04428 -9.53155
    endloop
  endfacet
  facet normal -1 0 0
    outer loop
      vertex 0 4.04428 -9.53155
      vertex 0 0 3
      vertex 0 4.07854 -9.37827
    endloop
  endfacet
  facet normal -1 0 0
    outer loop
      vertex 0 4.07854 -9.37827
      vertex 0 0 3
      vertex 0 4.12236 -9.22746
    endloop
  endfacet
  facet normal -1 0 0
    outer loop
      vertex 0 6.5 -7.5
      vertex 0 0 3
      vertex 0 13 3
    endloop
  endfacet
  facet normal -1 0 0
    outer loop
      vertex 0 4.38918 -8.66043
      vertex 0 0 3
      vertex 0 4.47746 -8.53054
    endloop
  endfacet
  facet normal -1 0 0
    outer loop
      vertex 0 4.30923 -8.79562
      vertex 0 0 3
      vertex 0 4.38918 -8.66043
    endloop
  endfacet
  facet normal -1 0 0
    outer loop
      vertex 0 4.23793 -8.93555
      vertex 0 0 3
      vertex 0 4.30923 -8.79562
    endloop
  endfacet
  facet normal -1 0 0
    outer loop
      vertex 0 4.17556 -9.07969
      vertex 0 0 3
      vertex 0 4.23793 -8.93555
    endloop
  endfacet
  facet normal -1 0 0
    outer loop
      vertex 0 4.12236 -9.22746
      vertex 0 0 3
      vertex 0 4.17556 -9.07969
    endloop
  endfacet
  facet normal 0 0 -1
    outer loop
      vertex 3 0 0
      vertex 74 13 0
      vertex 74 0 0
    endloop
  endfacet
  facet normal -0 0 -1
    outer loop
      vertex 74 13 0
      vertex 3 0 0
      vertex 3 13 0
    endloop
  endfacet
  facet normal 1 0 0
    outer loop
      vertex 3 13 0
      vertex 3 9 -10
      vertex 3 13 -19
    endloop
  endfacet
  facet normal 1 0 0
    outer loop
      vertex 3 13 0
      vertex 3 8.99507 -9.84302
      vertex 3 9 -10
    endloop
  endfacet
  facet normal 1 0 0
    outer loop
      vertex 3 13 0
      vertex 3 8.98029 -9.68667
      vertex 3 8.99507 -9.84302
    endloop
  endfacet
  facet normal 1 0 0
    outer loop
      vertex 3 13 0
      vertex 3 8.95572 -9.53155
      vertex 3 8.98029 -9.68667
    endloop
  endfacet
  facet normal 1 0 0
    outer loop
      vertex 3 13 0
      vertex 3 8.92146 -9.37827
      vertex 3 8.95572 -9.53155
    endloop
  endfacet
  facet normal 1 0 0
    outer loop
      vertex 3 13 0
      vertex 3 8.87764 -9.22746
      vertex 3 8.92146 -9.37827
    endloop
  endfacet
  facet normal 1 0 0
    outer loop
      vertex 3 13 0
      vertex 3 8.82444 -9.07969
      vertex 3 8.87764 -9.22746
    endloop
  endfacet
  facet normal 1 0 0
    outer loop
      vertex 3 13 0
      vertex 3 8.76207 -8.93555
      vertex 3 8.82444 -9.07969
    endloop
  endfacet
  facet normal 1 0 0
    outer loop
      vertex 3 13 0
      vertex 3 8.69077 -8.79562
      vertex 3 8.76207 -8.93555
    endloop
  endfacet
  facet normal 1 0 0
    outer loop
      vertex 3 13 0
      vertex 3 8.61082 -8.66043
      vertex 3 8.69077 -8.79562
    endloop
  endfacet
  facet normal 1 0 0
    outer loop
      vertex 3 13 0
      vertex 3 8.52254 -8.53054
      vertex 3 8.61082 -8.66043
    endloop
  endfacet
  facet normal 1 0 0
    outer loop
      vertex 3 13 0
      vertex 3 8.42628 -8.40644
      vertex 3 8.52254 -8.53054
    endloop
  endfacet
  facet normal 1 0 0
    outer loop
      vertex 3 13 0
      vertex 3 8.32242 -8.28863
      vertex 3 8.42628 -8.40644
    endloop
  endfacet
  facet normal 1 0 0
    outer loop
      vertex 3 13 0
      vertex 3 8.21137 -8.17758
      vertex 3 8.32242 -8.28863
    endloop
  endfacet
  facet normal 1 0 0
    outer loop
      vertex 3 13 0
      vertex 3 8.09356 -8.07372
      vertex 3 8.21137 -8.17758
    endloop
  endfacet
  facet normal 1 0 0
    outer loop
      vertex 3 13 0
      vertex 3 7.96946 -7.97746
      vertex 3 8.09356 -8.07372
    endloop
  endfacet
  facet normal 1 0 0
    outer loop
      vertex 3 13 0
      vertex 3 7.83957 -7.88918
      vertex 3 7.96946 -7.97746
    endloop
  endfacet
  facet normal 1 0 0
    outer loop
      vertex 3 13 0
      vertex 3 7.70438 -7.80923
      vertex 3 7.83957 -7.88918
    endloop
  endfacet
  facet normal 1 0 0
    outer loop
      vertex 3 13 0
      vertex 3 7.56445 -7.73793
      vertex 3 7.70438 -7.80923
    endloop
  endfacet
  facet normal 1 0 0
    outer loop
      vertex 3 13 0
      vertex 3 7.42031 -7.67556
      vertex 3 7.56445 -7.73793
    endloop
  endfacet
  facet normal 1 0 0
    outer loop
      vertex 3 13 0
      vertex 3 7.27254 -7.62236
      vertex 3 7.42031 -7.67556
    endloop
  endfacet
  facet normal 1 0 0
    outer loop
      vertex 3 13 0
      vertex 3 7.12172 -7.57854
      vertex 3 7.27254 -7.62236
    endloop
  endfacet
  facet normal 1 0 0
    outer loop
      vertex 3 13 0
      vertex 3 6.96845 -7.54428
      vertex 3 7.12172 -7.57854
    endloop
  endfacet
  facet normal 1 0 0
    outer loop
      vertex 3 13 0
      vertex 3 6.81333 -7.51971
      vertex 3 6.96845 -7.54428
    endloop
  endfacet
  facet normal 1 0 0
    outer loop
      vertex 3 13 0
      vertex 3 6.65698 -7.50493
      vertex 3 6.81333 -7.51971
    endloop
  endfacet
  facet normal 1 0 0
    outer loop
      vertex 3 13 0
      vertex 3 6.5 -7.5
      vertex 3 6.65698 -7.50493
    endloop
  endfacet
  facet normal 1 -0 0
    outer loop
      vertex 3 0 0
      vertex 3 6.5 -7.5
      vertex 3 13 0
    endloop
  endfacet
  facet normal 1 0 0
    outer loop
      vertex 3 6.5 -7.5
      vertex 3 0 0
      vertex 3 6.34302 -7.50493
    endloop
  endfacet
  facet normal 1 0 0
    outer loop
      vertex 3 6.34302 -7.50493
      vertex 3 0 0
      vertex 3 6.18667 -7.51971
    endloop
  endfacet
  facet normal 1 0 0
    outer loop
      vertex 3 6.18667 -7.51971
      vertex 3 0 0
      vertex 3 6.03155 -7.54428
    endloop
  endfacet
  facet normal 1 0 0
    outer loop
      vertex 3 6.03155 -7.54428
      vertex 3 0 0
      vertex 3 5.87827 -7.57854
    endloop
  endfacet
  facet normal 1 0 0
    outer loop
      vertex 3 5.87827 -7.57854
      vertex 3 0 0
      vertex 3 5.72746 -7.62236
    endloop
  endfacet
  facet normal 1 0 0
    outer loop
      vertex 3 5.72746 -7.62236
      vertex 3 0 0
      vertex 3 5.57969 -7.67556
    endloop
  endfacet
  facet normal 1 0 0
    outer loop
      vertex 3 5.57969 -7.67556
      vertex 3 0 0
      vertex 3 5.43555 -7.73793
    endloop
  endfacet
  facet normal 1 0 0
    outer loop
      vertex 3 5.43555 -7.73793
      vertex 3 0 0
      vertex 3 5.29562 -7.80923
    endloop
  endfacet
  facet normal 1 0 0
    outer loop
      vertex 3 5.29562 -7.80923
      vertex 3 0 0
      vertex 3 5.16043 -7.88918
    endloop
  endfacet
  facet normal 1 0 0
    outer loop
      vertex 3 5.16043 -7.88918
      vertex 3 0 0
      vertex 3 5.03054 -7.97746
    endloop
  endfacet
  facet normal 1 0 0
    outer loop
      vertex 3 5.03054 -7.97746
      vertex 3 0 0
      vertex 3 4.90644 -8.07372
    endloop
  endfacet
  facet normal 1 0 0
    outer loop
      vertex 3 4.00493 -9.84302
      vertex 3 0 0
      vertex 3 4 -10
    endloop
  endfacet
  facet normal 1 0 0
    outer loop
      vertex 3 4.01971 -9.68667
      vertex 3 0 0
      vertex 3 4.00493 -9.84302
    endloop
  endfacet
  facet normal 1 0 0
    outer loop
      vertex 3 4.04428 -9.53155
      vertex 3 0 0
      vertex 3 4.01971 -9.68667
    endloop
  endfacet
  facet normal 1 0 0
    outer loop
      vertex 3 4.07854 -9.37827
      vertex 3 0 0
      vertex 3 4.04428 -9.53155
    endloop
  endfacet
  facet normal 1 0 0
    outer loop
      vertex 3 4.12236 -9.22746
      vertex 3 0 0
      vertex 3 4.07854 -9.37827
    endloop
  endfacet
  facet normal 1 0 0
    outer loop
      vertex 3 4.17556 -9.07969
      vertex 3 0 0
      vertex 3 4.12236 -9.22746
    endloop
  endfacet
  facet normal 1 0 0
    outer loop
      vertex 3 4.23793 -8.93555
      vertex 3 0 0
      vertex 3 4.17556 -9.07969
    endloop
  endfacet
  facet normal 1 0 0
    outer loop
      vertex 3 4.30923 -8.79562
      vertex 3 0 0
      vertex 3 4.23793 -8.93555
    endloop
  endfacet
  facet normal 1 0 0
    outer loop
      vertex 3 4.38918 -8.66043
      vertex 3 0 0
      vertex 3 4.30923 -8.79562
    endloop
  endfacet
  facet normal 1 0 0
    outer loop
      vertex 3 4.47746 -8.53054
      vertex 3 0 0
      vertex 3 4.38918 -8.66043
    endloop
  endfacet
  facet normal 1 0 0
    outer loop
      vertex 3 4.57372 -8.40644
      vertex 3 0 0
      vertex 3 4.47746 -8.53054
    endloop
  endfacet
  facet normal 1 0 0
    outer loop
      vertex 3 4.67758 -8.28863
      vertex 3 0 0
      vertex 3 4.57372 -8.40644
    endloop
  endfacet
  facet normal 1 0 0
    outer loop
      vertex 3 4.78863 -8.17758
      vertex 3 0 0
      vertex 3 4.67758 -8.28863
    endloop
  endfacet
  facet normal 1 0 0
    outer loop
      vertex 3 4.90644 -8.07372
      vertex 3 0 0
      vertex 3 4.78863 -8.17758
    endloop
  endfacet
  facet normal 1 -0 0
    outer loop
      vertex 3 8.99507 -10.157
      vertex 3 13 -19
      vertex 3 9 -10
    endloop
  endfacet
  facet normal 1 -0 0
    outer loop
      vertex 3 8.98029 -10.3133
      vertex 3 13 -19
      vertex 3 8.99507 -10.157
    endloop
  endfacet
  facet normal 1 -0 0
    outer loop
      vertex 3 8.95572 -10.4685
      vertex 3 13 -19
      vertex 3 8.98029 -10.3133
    endloop
  endfacet
  facet normal 1 -0 0
    outer loop
      vertex 3 8.92146 -10.6217
      vertex 3 13 -19
      vertex 3 8.95572 -10.4685
    endloop
  endfacet
  facet normal 1 -0 0
    outer loop
      vertex 3 8.87764 -10.7725
      vertex 3 13 -19
      vertex 3 8.92146 -10.6217
    endloop
  endfacet
  facet normal 1 -0 0
    outer loop
      vertex 3 8.82444 -10.9203
      vertex 3 13 -19
      vertex 3 8.87764 -10.7725
    endloop
  endfacet
  facet normal 1 -0 0
    outer loop
      vertex 3 8.76207 -11.0644
      vertex 3 13 -19
      vertex 3 8.82444 -10.9203
    endloop
  endfacet
  facet normal 1 -0 0
    outer loop
      vertex 3 8.69077 -11.2044
      vertex 3 13 -19
      vertex 3 8.76207 -11.0644
    endloop
  endfacet
  facet normal 1 -0 0
    outer loop
      vertex 3 8.61082 -11.3396
      vertex 3 13 -19
      vertex 3 8.69077 -11.2044
    endloop
  endfacet
  facet normal 1 -0 0
    outer loop
      vertex 3 8.52254 -11.4695
      vertex 3 13 -19
      vertex 3 8.61082 -11.3396
    endloop
  endfacet
  facet normal 1 -0 0
    outer loop
      vertex 3 8.42628 -11.5936
      vertex 3 13 -19
      vertex 3 8.52254 -11.4695
    endloop
  endfacet
  facet normal 1 -0 0
    outer loop
      vertex 3 8.32242 -11.7114
      vertex 3 13 -19
      vertex 3 8.42628 -11.5936
    endloop
  endfacet
  facet normal 1 -0 0
    outer loop
      vertex 3 8.21137 -11.8224
      vertex 3 13 -19
      vertex 3 8.32242 -11.7114
    endloop
  endfacet
  facet normal 1 -0 0
    outer loop
      vertex 3 8.09356 -11.9263
      vertex 3 13 -19
      vertex 3 8.21137 -11.8224
    endloop
  endfacet
  facet normal 1 -0 0
    outer loop
      vertex 3 7.96946 -12.0225
      vertex 3 13 -19
      vertex 3 8.09356 -11.9263
    endloop
  endfacet
  facet normal 1 -0 0
    outer loop
      vertex 3 7.83957 -12.1108
      vertex 3 13 -19
      vertex 3 7.96946 -12.0225
    endloop
  endfacet
  facet normal 1 -0 0
    outer loop
      vertex 3 7.70438 -12.1908
      vertex 3 13 -19
      vertex 3 7.83957 -12.1108
    endloop
  endfacet
  facet normal 1 -0 0
    outer loop
      vertex 3 7.56445 -12.2621
      vertex 3 13 -19
      vertex 3 7.70438 -12.1908
    endloop
  endfacet
  facet normal 1 -0 0
    outer loop
      vertex 3 7.42031 -12.3244
      vertex 3 13 -19
      vertex 3 7.56445 -12.2621
    endloop
  endfacet
  facet normal 1 -0 0
    outer loop
      vertex 3 7.27254 -12.3776
      vertex 3 13 -19
      vertex 3 7.42031 -12.3244
    endloop
  endfacet
  facet normal 1 -0 0
    outer loop
      vertex 3 7.12172 -12.4215
      vertex 3 13 -19
      vertex 3 7.27254 -12.3776
    endloop
  endfacet
  facet normal 1 -0 0
    outer loop
      vertex 3 6.96845 -12.4557
      vertex 3 13 -19
      vertex 3 7.12172 -12.4215
    endloop
  endfacet
  facet normal 1 -0 0
    outer loop
      vertex 3 6.81333 -12.4803
      vertex 3 13 -19
      vertex 3 6.96845 -12.4557
    endloop
  endfacet
  facet normal 1 -0 0
    outer loop
      vertex 3 6.65698 -12.4951
      vertex 3 13 -19
      vertex 3 6.81333 -12.4803
    endloop
  endfacet
  facet normal 1 -0 0
    outer loop
      vertex 3 6.5 -12.5
      vertex 3 13 -19
      vertex 3 6.65698 -12.4951
    endloop
  endfacet
  facet normal 1 0 0
    outer loop
      vertex 3 0 -19
      vertex 3 6.5 -12.5
      vertex 3 6.34302 -12.4951
    endloop
  endfacet
  facet normal 1 0 0
    outer loop
      vertex 3 0 -19
      vertex 3 6.34302 -12.4951
      vertex 3 6.18667 -12.4803
    endloop
  endfacet
  facet normal 1 0 0
    outer loop
      vertex 3 0 -19
      vertex 3 6.18667 -12.4803
      vertex 3 6.03155 -12.4557
    endloop
  endfacet
  facet normal 1 0 0
    outer loop
      vertex 3 0 -19
      vertex 3 6.03155 -12.4557
      vertex 3 5.87827 -12.4215
    endloop
  endfacet
  facet normal 1 0 0
    outer loop
      vertex 3 0 -19
      vertex 3 5.87827 -12.4215
      vertex 3 5.72746 -12.3776
    endloop
  endfacet
  facet normal 1 0 0
    outer loop
      vertex 3 0 -19
      vertex 3 5.72746 -12.3776
      vertex 3 5.57969 -12.3244
    endloop
  endfacet
  facet normal 1 0 0
    outer loop
      vertex 3 0 -19
      vertex 3 5.57969 -12.3244
      vertex 3 5.43555 -12.2621
    endloop
  endfacet
  facet normal 1 0 0
    outer loop
      vertex 3 0 -19
      vertex 3 5.43555 -12.2621
      vertex 3 5.29562 -12.1908
    endloop
  endfacet
  facet normal 1 0 0
    outer loop
      vertex 3 0 -19
      vertex 3 5.29562 -12.1908
      vertex 3 5.16043 -12.1108
    endloop
  endfacet
  facet normal 1 0 0
    outer loop
      vertex 3 0 -19
      vertex 3 5.16043 -12.1108
      vertex 3 5.03054 -12.0225
    endloop
  endfacet
  facet normal 1 0 0
    outer loop
      vertex 3 0 -19
      vertex 3 5.03054 -12.0225
      vertex 3 4.90644 -11.9263
    endloop
  endfacet
  facet normal 1 0 0
    outer loop
      vertex 3 0 -19
      vertex 3 4 -10
      vertex 3 0 0
    endloop
  endfacet
  facet normal 1 0 0
    outer loop
      vertex 3 4 -10
      vertex 3 0 -19
      vertex 3 4.00493 -10.157
    endloop
  endfacet
  facet normal 1 0 0
    outer loop
      vertex 3 4.00493 -10.157
      vertex 3 0 -19
      vertex 3 4.01971 -10.3133
    endloop
  endfacet
  facet normal 1 0 0
    outer loop
      vertex 3 4.01971 -10.3133
      vertex 3 0 -19
      vertex 3 4.04428 -10.4685
    endloop
  endfacet
  facet normal 1 0 0
    outer loop
      vertex 3 4.04428 -10.4685
      vertex 3 0 -19
      vertex 3 4.07854 -10.6217
    endloop
  endfacet
  facet normal 1 0 0
    outer loop
      vertex 3 4.07854 -10.6217
      vertex 3 0 -19
      vertex 3 4.12236 -10.7725
    endloop
  endfacet
  facet normal 1 0 0
    outer loop
      vertex 3 6.5 -12.5
      vertex 3 0 -19
      vertex 3 13 -19
    endloop
  endfacet
  facet normal 1 0 0
    outer loop
      vertex 3 4.78863 -11.8224
      vertex 3 0 -19
      vertex 3 4.90644 -11.9263
    endloop
  endfacet
  facet normal 1 0 0
    outer loop
      vertex 3 4.67758 -11.7114
      vertex 3 0 -19
      vertex 3 4.78863 -11.8224
    endloop
  endfacet
  facet normal 1 0 0
    outer loop
      vertex 3 4.57372 -11.5936
      vertex 3 0 -19
      vertex 3 4.67758 -11.7114
    endloop
  endfacet
  facet normal 1 0 0
    outer loop
      vertex 3 4.47746 -11.4695
      vertex 3 0 -19
      vertex 3 4.57372 -11.5936
    endloop
  endfacet
  facet normal 1 0 0
    outer loop
      vertex 3 4.38918 -11.3396
      vertex 3 0 -19
      vertex 3 4.47746 -11.4695
    endloop
  endfacet
  facet normal 1 0 0
    outer loop
      vertex 3 4.30923 -11.2044
      vertex 3 0 -19
      vertex 3 4.38918 -11.3396
    endloop
  endfacet
  facet normal 1 0 0
    outer loop
      vertex 3 4.23793 -11.0644
      vertex 3 0 -19
      vertex 3 4.30923 -11.2044
    endloop
  endfacet
  facet normal 1 0 0
    outer loop
      vertex 3 4.17556 -10.9203
      vertex 3 0 -19
      vertex 3 4.23793 -11.0644
    endloop
  endfacet
  facet normal 1 0 0
    outer loop
      vertex 3 4.12236 -10.7725
      vertex 3 0 -19
      vertex 3 4.17556 -10.9203
    endloop
  endfacet
  facet normal 0 0 -1
    outer loop
      vertex 0 0 -19
      vertex 3 13 -19
      vertex 3 0 -19
    endloop
  endfacet
  facet normal -0 0 -1
    outer loop
      vertex 3 13 -19
      vertex 0 0 -19
      vertex 0 13 -19
    endloop
  endfacet
  facet normal 0 -0.031199 0.999513
    outer loop
      vertex 0 6.65698 -12.4951
      vertex 3 6.5 -12.5
      vertex 3 6.65698 -12.4951
    endloop
  endfacet
  facet normal 0 -0.031199 0.999513
    outer loop
      vertex 3 6.5 -12.5
      vertex 0 6.65698 -12.4951
      vertex 0 6.5 -12.5
    endloop
  endfacet
  facet normal 0 0.0313898 -0.999507
    outer loop
      vertex 0 6.34302 -7.50493
      vertex 3 6.5 -7.5
      vertex 3 6.34302 -7.50493
    endloop
  endfacet
  facet normal 0 0.0313898 -0.999507
    outer loop
      vertex 3 6.5 -7.5
      vertex 0 6.34302 -7.50493
      vertex 0 6.5 -7.5
    endloop
  endfacet
  facet normal 0 -0.999507 -0.0313898
    outer loop
      vertex 0 9 -10
      vertex 3 8.99507 -9.84302
      vertex 0 8.99507 -9.84302
    endloop
  endfacet
  facet normal 0 -0.999507 -0.0313898
    outer loop
      vertex 3 8.99507 -9.84302
      vertex 0 9 -10
      vertex 3 9 -10
    endloop
  endfacet
  facet normal 0 0.707107 -0.707107
    outer loop
      vertex 3 4.67758 -8.28863
      vertex 0 4.78863 -8.17758
      vertex 3 4.78863 -8.17758
    endloop
  endfacet
  facet normal 0 0.707107 -0.707107
    outer loop
      vertex 0 4.78863 -8.17758
      vertex 3 4.67758 -8.28863
      vertex 0 4.67758 -8.28863
    endloop
  endfacet
  facet normal 0 -0.707107 -0.707107
    outer loop
      vertex 0 8.32242 -8.28863
      vertex 3 8.21137 -8.17758
      vertex 0 8.21137 -8.17758
    endloop
  endfacet
  facet normal 0 -0.707107 -0.707107
    outer loop
      vertex 3 8.21137 -8.17758
      vertex 0 8.32242 -8.28863
      vertex 3 8.32242 -8.28863
    endloop
  endfacet
  facet normal 0 -0.917766 -0.397121
    outer loop
      vertex 0 8.82444 -9.07969
      vertex 3 8.76207 -8.93555
      vertex 0 8.76207 -8.93555
    endloop
  endfacet
  facet normal 0 -0.917766 -0.397121
    outer loop
      vertex 3 8.76207 -8.93555
      vertex 0 8.82444 -9.07969
      vertex 3 8.82444 -9.07969
    endloop
  endfacet
  facet normal 0 0.397121 -0.917766
    outer loop
      vertex 0 5.43555 -7.73793
      vertex 3 5.57969 -7.67556
      vertex 3 5.43555 -7.73793
    endloop
  endfacet
  facet normal 0 0.397121 -0.917766
    outer loop
      vertex 3 5.57969 -7.67556
      vertex 0 5.43555 -7.73793
      vertex 0 5.57969 -7.67556
    endloop
  endfacet
  facet normal 0 -0.397121 -0.917766
    outer loop
      vertex 0 7.42031 -7.67556
      vertex 3 7.56445 -7.73793
      vertex 3 7.42031 -7.67556
    endloop
  endfacet
  facet normal -0 -0.397121 -0.917766
    outer loop
      vertex 3 7.56445 -7.73793
      vertex 0 7.42031 -7.67556
      vertex 0 7.56445 -7.73793
    endloop
  endfacet
  facet normal 0 -0.97592 -0.21813
    outer loop
      vertex 0 8.95572 -9.53155
      vertex 3 8.92146 -9.37827
      vertex 0 8.92146 -9.37827
    endloop
  endfacet
  facet normal 0 -0.97592 -0.21813
    outer loop
      vertex 3 8.92146 -9.37827
      vertex 0 8.95572 -9.53155
      vertex 3 8.95572 -9.53155
    endloop
  endfacet
  facet normal 0 0.917766 -0.397121
    outer loop
      vertex 3 4.17556 -9.07969
      vertex 0 4.23793 -8.93555
      vertex 3 4.23793 -8.93555
    endloop
  endfacet
  facet normal 0 0.917766 -0.397121
    outer loop
      vertex 0 4.23793 -8.93555
      vertex 3 4.17556 -9.07969
      vertex 0 4.17556 -9.07969
    endloop
  endfacet
  facet normal 0 0.21813 -0.97592
    outer loop
      vertex 0 5.87827 -7.57854
      vertex 3 6.03155 -7.54428
      vertex 3 5.87827 -7.57854
    endloop
  endfacet
  facet normal 0 0.21813 -0.97592
    outer loop
      vertex 3 6.03155 -7.54428
      vertex 0 5.87827 -7.57854
      vertex 0 6.03155 -7.54428
    endloop
  endfacet
  facet normal 0 -0.454001 0.891001
    outer loop
      vertex 0 7.70438 -12.1908
      vertex 3 7.56445 -12.2621
      vertex 3 7.70438 -12.1908
    endloop
  endfacet
  facet normal 0 -0.454001 0.891001
    outer loop
      vertex 3 7.56445 -12.2621
      vertex 0 7.70438 -12.1908
      vertex 0 7.56445 -12.2621
    endloop
  endfacet
  facet normal 0 -0.940904 0.338674
    outer loop
      vertex 0 8.82444 -10.9203
      vertex 3 8.87764 -10.7725
      vertex 0 8.87764 -10.7725
    endloop
  endfacet
  facet normal 0 -0.940904 0.338674
    outer loop
      vertex 3 8.87764 -10.7725
      vertex 0 8.82444 -10.9203
      vertex 3 8.82444 -10.9203
    endloop
  endfacet
  facet normal 0 -0.860762 0.509008
    outer loop
      vertex 0 8.61082 -11.3396
      vertex 3 8.69077 -11.2044
      vertex 0 8.69077 -11.2044
    endloop
  endfacet
  facet normal 0 -0.860762 0.509008
    outer loop
      vertex 3 8.69077 -11.2044
      vertex 0 8.61082 -11.3396
      vertex 3 8.61082 -11.3396
    endloop
  endfacet
  facet normal 0 -0.218144 -0.975917
    outer loop
      vertex 0 6.96845 -7.54428
      vertex 3 7.12172 -7.57854
      vertex 3 6.96845 -7.54428
    endloop
  endfacet
  facet normal -0 -0.218144 -0.975917
    outer loop
      vertex 3 7.12172 -7.57854
      vertex 0 6.96845 -7.54428
      vertex 0 7.12172 -7.57854
    endloop
  endfacet
  facet normal 0 -0.562113 -0.82706
    outer loop
      vertex 0 7.83957 -7.88918
      vertex 3 7.96946 -7.97746
      vertex 3 7.83957 -7.88918
    endloop
  endfacet
  facet normal -0 -0.562113 -0.82706
    outer loop
      vertex 3 7.96946 -7.97746
      vertex 0 7.83957 -7.88918
      vertex 0 7.96946 -7.97746
    endloop
  endfacet
  facet normal 0 -0.509036 -0.860745
    outer loop
      vertex 0 7.70438 -7.80923
      vertex 3 7.83957 -7.88918
      vertex 3 7.70438 -7.80923
    endloop
  endfacet
  facet normal -0 -0.509036 -0.860745
    outer loop
      vertex 3 7.83957 -7.88918
      vertex 0 7.70438 -7.80923
      vertex 0 7.83957 -7.88918
    endloop
  endfacet
  facet normal 0 -0.338735 -0.940882
    outer loop
      vertex 0 7.27254 -7.62236
      vertex 3 7.42031 -7.67556
      vertex 3 7.27254 -7.62236
    endloop
  endfacet
  facet normal -0 -0.338735 -0.940882
    outer loop
      vertex 3 7.42031 -7.67556
      vertex 0 7.27254 -7.62236
      vertex 0 7.42031 -7.67556
    endloop
  endfacet
  facet normal 0 -0.82706 -0.562113
    outer loop
      vertex 0 8.61082 -8.66043
      vertex 3 8.52254 -8.53054
      vertex 0 8.52254 -8.53054
    endloop
  endfacet
  facet normal 0 -0.82706 -0.562113
    outer loop
      vertex 3 8.52254 -8.53054
      vertex 0 8.61082 -8.66043
      vertex 3 8.61082 -8.66043
    endloop
  endfacet
  facet normal 0 -0.891001 -0.454001
    outer loop
      vertex 0 8.76207 -8.93555
      vertex 3 8.69077 -8.79562
      vertex 0 8.69077 -8.79562
    endloop
  endfacet
  facet normal 0 -0.891001 -0.454001
    outer loop
      vertex 3 8.69077 -8.79562
      vertex 0 8.76207 -8.93555
      vertex 3 8.76207 -8.93555
    endloop
  endfacet
  facet normal 0 -0.987687 -0.156443
    outer loop
      vertex 0 8.98029 -9.68667
      vertex 3 8.95572 -9.53155
      vertex 0 8.95572 -9.53155
    endloop
  endfacet
  facet normal 0 -0.987687 -0.156443
    outer loop
      vertex 3 8.95572 -9.53155
      vertex 0 8.98029 -9.68667
      vertex 3 8.98029 -9.68667
    endloop
  endfacet
  facet normal 0 0.891093 0.453821
    outer loop
      vertex 3 4.30923 -11.2044
      vertex 0 4.23793 -11.0644
      vertex 3 4.23793 -11.0644
    endloop
  endfacet
  facet normal 0 0.891093 0.453821
    outer loop
      vertex 0 4.23793 -11.0644
      vertex 3 4.30923 -11.2044
      vertex 0 4.30923 -11.2044
    endloop
  endfacet
  facet normal -0 0.509272 0.860606
    outer loop
      vertex 0 5.29562 -12.1908
      vertex 3 5.16043 -12.1108
      vertex 3 5.29562 -12.1908
    endloop
  endfacet
  facet normal 0 0.509272 0.860606
    outer loop
      vertex 3 5.16043 -12.1108
      vertex 0 5.29562 -12.1908
      vertex 0 5.16043 -12.1108
    endloop
  endfacet
  facet normal 0 0.97592 -0.21813
    outer loop
      vertex 3 4.04428 -9.53155
      vertex 0 4.07854 -9.37827
      vertex 3 4.07854 -9.37827
    endloop
  endfacet
  facet normal 0 0.97592 -0.21813
    outer loop
      vertex 0 4.07854 -9.37827
      vertex 3 4.04428 -9.53155
      vertex 0 4.04428 -9.53155
    endloop
  endfacet
  facet normal 0 0.82706 -0.562113
    outer loop
      vertex 3 4.38918 -8.66043
      vertex 0 4.47746 -8.53054
      vertex 3 4.47746 -8.53054
    endloop
  endfacet
  facet normal 0 0.82706 -0.562113
    outer loop
      vertex 0 4.47746 -8.53054
      vertex 3 4.38918 -8.66043
      vertex 0 4.38918 -8.66043
    endloop
  endfacet
  facet normal 0 0.860745 -0.509036
    outer loop
      vertex 3 4.30923 -8.79562
      vertex 0 4.38918 -8.66043
      vertex 3 4.38918 -8.66043
    endloop
  endfacet
  facet normal 0 0.860745 -0.509036
    outer loop
      vertex 0 4.38918 -8.66043
      vertex 3 4.30923 -8.79562
      vertex 0 4.30923 -8.79562
    endloop
  endfacet
  facet normal 0 0.940882 -0.338735
    outer loop
      vertex 3 4.12236 -9.22746
      vertex 0 4.17556 -9.07969
      vertex 3 4.17556 -9.07969
    endloop
  endfacet
  facet normal 0 0.940882 -0.338735
    outer loop
      vertex 0 4.17556 -9.07969
      vertex 3 4.12236 -9.22746
      vertex 0 4.12236 -9.22746
    endloop
  endfacet
  facet normal 0 0.562113 -0.82706
    outer loop
      vertex 0 5.03054 -7.97746
      vertex 3 5.16043 -7.88918
      vertex 3 5.03054 -7.97746
    endloop
  endfacet
  facet normal 0 0.562113 -0.82706
    outer loop
      vertex 3 5.16043 -7.88918
      vertex 0 5.03054 -7.97746
      vertex 0 5.16043 -7.88918
    endloop
  endfacet
  facet normal 0 0.454001 -0.891001
    outer loop
      vertex 0 5.29562 -7.80923
      vertex 3 5.43555 -7.73793
      vertex 3 5.29562 -7.80923
    endloop
  endfacet
  facet normal 0 0.454001 -0.891001
    outer loop
      vertex 3 5.43555 -7.73793
      vertex 0 5.29562 -7.80923
      vertex 0 5.43555 -7.73793
    endloop
  endfacet
  facet normal 0 0.156443 -0.987687
    outer loop
      vertex 0 6.03155 -7.54428
      vertex 3 6.18667 -7.51971
      vertex 3 6.03155 -7.54428
    endloop
  endfacet
  facet normal 0 0.156443 -0.987687
    outer loop
      vertex 3 6.18667 -7.51971
      vertex 0 6.03155 -7.54428
      vertex 0 6.18667 -7.51971
    endloop
  endfacet
  facet normal 0 -0.0942382 0.99555
    outer loop
      vertex 0 6.81333 -12.4803
      vertex 3 6.65698 -12.4951
      vertex 3 6.81333 -12.4803
    endloop
  endfacet
  facet normal 0 -0.0942382 0.99555
    outer loop
      vertex 3 6.65698 -12.4951
      vertex 0 6.81333 -12.4803
      vertex 0 6.65698 -12.4951
    endloop
  endfacet
  facet normal 0 -0.21778 0.975998
    outer loop
      vertex 0 7.12172 -12.4215
      vertex 3 6.96845 -12.4557
      vertex 3 7.12172 -12.4215
    endloop
  endfacet
  facet normal 0 -0.21778 0.975998
    outer loop
      vertex 3 6.96845 -12.4557
      vertex 0 7.12172 -12.4215
      vertex 0 6.96845 -12.4557
    endloop
  endfacet
  facet normal 0 -0.338735 0.940882
    outer loop
      vertex 0 7.42031 -12.3244
      vertex 3 7.27254 -12.3776
      vertex 3 7.42031 -12.3244
    endloop
  endfacet
  facet normal 0 -0.338735 0.940882
    outer loop
      vertex 3 7.27254 -12.3776
      vertex 0 7.42031 -12.3244
      vertex 0 7.27254 -12.3776
    endloop
  endfacet
  facet normal 0 -0.396746 0.917929
    outer loop
      vertex 0 7.56445 -12.2621
      vertex 3 7.42031 -12.3244
      vertex 3 7.56445 -12.2621
    endloop
  endfacet
  facet normal 0 -0.396746 0.917929
    outer loop
      vertex 3 7.42031 -12.3244
      vertex 0 7.56445 -12.2621
      vertex 0 7.42031 -12.3244
    endloop
  endfacet
  facet normal 0 -0.279477 0.960152
    outer loop
      vertex 0 7.27254 -12.3776
      vertex 3 7.12172 -12.4215
      vertex 3 7.27254 -12.3776
    endloop
  endfacet
  facet normal 0 -0.279477 0.960152
    outer loop
      vertex 3 7.12172 -12.4215
      vertex 0 7.27254 -12.3776
      vertex 0 7.12172 -12.4215
    endloop
  endfacet
  facet normal 0 -0.661443 0.749996
    outer loop
      vertex 0 8.21137 -11.8224
      vertex 3 8.09356 -11.9263
      vertex 3 8.21137 -11.8224
    endloop
  endfacet
  facet normal 0 -0.661443 0.749996
    outer loop
      vertex 3 8.09356 -11.9263
      vertex 0 8.21137 -11.8224
      vertex 0 8.09356 -11.9263
    endloop
  endfacet
  facet normal 0 -0.612661 0.790346
    outer loop
      vertex 0 8.09356 -11.9263
      vertex 3 7.96946 -12.0225
      vertex 3 8.09356 -11.9263
    endloop
  endfacet
  facet normal 0 -0.612661 0.790346
    outer loop
      vertex 3 7.96946 -12.0225
      vertex 0 8.09356 -11.9263
      vertex 0 7.96946 -12.0225
    endloop
  endfacet
  facet normal 0 -0.706948 0.707266
    outer loop
      vertex 0 8.21137 -11.8224
      vertex 3 8.32242 -11.7114
      vertex 0 8.32242 -11.7114
    endloop
  endfacet
  facet normal 0 -0.706948 0.707266
    outer loop
      vertex 3 8.32242 -11.7114
      vertex 0 8.21137 -11.8224
      vertex 3 8.21137 -11.8224
    endloop
  endfacet
  facet normal 0 -0.509272 0.860606
    outer loop
      vertex 0 7.83957 -12.1108
      vertex 3 7.70438 -12.1908
      vertex 3 7.83957 -12.1108
    endloop
  endfacet
  facet normal 0 -0.509272 0.860606
    outer loop
      vertex 3 7.70438 -12.1908
      vertex 0 7.83957 -12.1108
      vertex 0 7.70438 -12.1908
    endloop
  endfacet
  facet normal 0 -0.5622 0.827001
    outer loop
      vertex 0 7.96946 -12.0225
      vertex 3 7.83957 -12.1108
      vertex 3 7.96946 -12.0225
    endloop
  endfacet
  facet normal 0 -0.5622 0.827001
    outer loop
      vertex 3 7.83957 -12.1108
      vertex 0 7.96946 -12.0225
      vertex 0 7.83957 -12.1108
    endloop
  endfacet
  facet normal 0 -0.960279 0.279041
    outer loop
      vertex 0 8.87764 -10.7725
      vertex 3 8.92146 -10.6217
      vertex 0 8.92146 -10.6217
    endloop
  endfacet
  facet normal 0 -0.960279 0.279041
    outer loop
      vertex 3 8.92146 -10.6217
      vertex 0 8.87764 -10.7725
      vertex 3 8.87764 -10.7725
    endloop
  endfacet
  facet normal 0 -0.995559 0.0941418
    outer loop
      vertex 0 8.98029 -10.3133
      vertex 3 8.99507 -10.157
      vertex 0 8.99507 -10.157
    endloop
  endfacet
  facet normal 0 -0.995559 0.0941418
    outer loop
      vertex 3 8.99507 -10.157
      vertex 0 8.98029 -10.3133
      vertex 3 8.98029 -10.3133
    endloop
  endfacet
  facet normal 0 -0.987699 0.156365
    outer loop
      vertex 0 8.95572 -10.4685
      vertex 3 8.98029 -10.3133
      vertex 0 8.98029 -10.3133
    endloop
  endfacet
  facet normal 0 -0.987699 0.156365
    outer loop
      vertex 3 8.98029 -10.3133
      vertex 0 8.95572 -10.4685
      vertex 3 8.95572 -10.4685
    endloop
  endfacet
  facet normal 0 -0.999507 0.0313858
    outer loop
      vertex 0 8.99507 -10.157
      vertex 3 9 -10
      vertex 0 9 -10
    endloop
  endfacet
  facet normal 0 -0.999507 0.0313858
    outer loop
      vertex 3 9 -10
      vertex 0 8.99507 -10.157
      vertex 3 8.99507 -10.157
    endloop
  endfacet
  facet normal 0 -0.891093 0.453821
    outer loop
      vertex 0 8.69077 -11.2044
      vertex 3 8.76207 -11.0644
      vertex 0 8.76207 -11.0644
    endloop
  endfacet
  facet normal 0 -0.891093 0.453821
    outer loop
      vertex 3 8.76207 -11.0644
      vertex 0 8.69077 -11.2044
      vertex 3 8.69077 -11.2044
    endloop
  endfacet
  facet normal 0 -0.82708 0.562084
    outer loop
      vertex 0 8.52254 -11.4695
      vertex 3 8.61082 -11.3396
      vertex 0 8.61082 -11.3396
    endloop
  endfacet
  facet normal 0 -0.82708 0.562084
    outer loop
      vertex 3 8.61082 -11.3396
      vertex 0 8.52254 -11.4695
      vertex 3 8.52254 -11.4695
    endloop
  endfacet
  facet normal 0 -0.750094 0.661331
    outer loop
      vertex 0 8.32242 -11.7114
      vertex 3 8.42628 -11.5936
      vertex 0 8.42628 -11.5936
    endloop
  endfacet
  facet normal 0 -0.750094 0.661331
    outer loop
      vertex 3 8.42628 -11.5936
      vertex 0 8.32242 -11.7114
      vertex 3 8.32242 -11.7114
    endloop
  endfacet
  facet normal 0 -0.0941119 -0.995562
    outer loop
      vertex 0 6.65698 -7.50493
      vertex 3 6.81333 -7.51971
      vertex 3 6.65698 -7.50493
    endloop
  endfacet
  facet normal -0 -0.0941119 -0.995562
    outer loop
      vertex 3 6.81333 -7.51971
      vertex 0 6.65698 -7.50493
      vertex 0 6.81333 -7.51971
    endloop
  endfacet
  facet normal 0 -0.6129 -0.790161
    outer loop
      vertex 0 7.96946 -7.97746
      vertex 3 8.09356 -8.07372
      vertex 3 7.96946 -7.97746
    endloop
  endfacet
  facet normal -0 -0.6129 -0.790161
    outer loop
      vertex 3 8.09356 -8.07372
      vertex 0 7.96946 -7.97746
      vertex 0 8.09356 -8.07372
    endloop
  endfacet
  facet normal 0 -0.661299 -0.750122
    outer loop
      vertex 0 8.09356 -8.07372
      vertex 3 8.21137 -8.17758
      vertex 3 8.09356 -8.07372
    endloop
  endfacet
  facet normal -0 -0.661299 -0.750122
    outer loop
      vertex 3 8.21137 -8.17758
      vertex 0 8.09356 -8.07372
      vertex 0 8.21137 -8.17758
    endloop
  endfacet
  facet normal 0 -0.454001 -0.891001
    outer loop
      vertex 0 7.56445 -7.73793
      vertex 3 7.70438 -7.80923
      vertex 3 7.56445 -7.73793
    endloop
  endfacet
  facet normal -0 -0.454001 -0.891001
    outer loop
      vertex 3 7.70438 -7.80923
      vertex 0 7.56445 -7.73793
      vertex 0 7.70438 -7.80923
    endloop
  endfacet
  facet normal 0 -0.279007 -0.960289
    outer loop
      vertex 0 7.12172 -7.57854
      vertex 3 7.27254 -7.62236
      vertex 3 7.12172 -7.57854
    endloop
  endfacet
  facet normal -0 -0.279007 -0.960289
    outer loop
      vertex 3 7.27254 -7.62236
      vertex 0 7.12172 -7.57854
      vertex 0 7.27254 -7.62236
    endloop
  endfacet
  facet normal 0 -0.0313898 -0.999507
    outer loop
      vertex 0 6.5 -7.5
      vertex 3 6.65698 -7.50493
      vertex 3 6.5 -7.5
    endloop
  endfacet
  facet normal -0 -0.0313898 -0.999507
    outer loop
      vertex 3 6.65698 -7.50493
      vertex 0 6.5 -7.5
      vertex 0 6.65698 -7.50493
    endloop
  endfacet
  facet normal 0 -0.860745 -0.509036
    outer loop
      vertex 0 8.69077 -8.79562
      vertex 3 8.61082 -8.66043
      vertex 0 8.61082 -8.66043
    endloop
  endfacet
  facet normal 0 -0.860745 -0.509036
    outer loop
      vertex 3 8.61082 -8.66043
      vertex 0 8.69077 -8.79562
      vertex 3 8.69077 -8.79562
    endloop
  endfacet
  facet normal 0 -0.750122 -0.661299
    outer loop
      vertex 0 8.42628 -8.40644
      vertex 3 8.32242 -8.28863
      vertex 0 8.32242 -8.28863
    endloop
  endfacet
  facet normal 0 -0.750122 -0.661299
    outer loop
      vertex 3 8.32242 -8.28863
      vertex 0 8.42628 -8.40644
      vertex 3 8.42628 -8.40644
    endloop
  endfacet
  facet normal 0 -0.960284 -0.279024
    outer loop
      vertex 0 8.92146 -9.37827
      vertex 3 8.87764 -9.22746
      vertex 0 8.87764 -9.22746
    endloop
  endfacet
  facet normal 0 -0.960284 -0.279024
    outer loop
      vertex 3 8.87764 -9.22746
      vertex 0 8.92146 -9.37827
      vertex 3 8.92146 -9.37827
    endloop
  endfacet
  facet normal 0 -0.940882 -0.338735
    outer loop
      vertex 0 8.87764 -9.22746
      vertex 3 8.82444 -9.07969
      vertex 0 8.82444 -9.07969
    endloop
  endfacet
  facet normal 0 -0.940882 -0.338735
    outer loop
      vertex 3 8.82444 -9.07969
      vertex 0 8.87764 -9.22746
      vertex 3 8.87764 -9.22746
    endloop
  endfacet
  facet normal 0 -0.995562 -0.0941119
    outer loop
      vertex 0 8.99507 -9.84302
      vertex 3 8.98029 -9.68667
      vertex 0 8.98029 -9.68667
    endloop
  endfacet
  facet normal 0 -0.995562 -0.0941119
    outer loop
      vertex 3 8.98029 -9.68667
      vertex 0 8.99507 -9.84302
      vertex 3 8.99507 -9.84302
    endloop
  endfacet
  facet normal -0 0.031199 0.999513
    outer loop
      vertex 0 6.5 -12.5
      vertex 3 6.34302 -12.4951
      vertex 3 6.5 -12.5
    endloop
  endfacet
  facet normal 0 0.031199 0.999513
    outer loop
      vertex 3 6.34302 -12.4951
      vertex 0 6.5 -12.5
      vertex 0 6.34302 -12.4951
    endloop
  endfacet
  facet normal 0 0.995559 0.0941418
    outer loop
      vertex 3 4.01971 -10.3133
      vertex 0 4.00493 -10.157
      vertex 3 4.00493 -10.157
    endloop
  endfacet
  facet normal 0 0.995559 0.0941418
    outer loop
      vertex 0 4.00493 -10.157
      vertex 3 4.01971 -10.3133
      vertex 0 4.01971 -10.3133
    endloop
  endfacet
  facet normal 0 0.975895 0.218239
    outer loop
      vertex 3 4.07854 -10.6217
      vertex 0 4.04428 -10.4685
      vertex 3 4.04428 -10.4685
    endloop
  endfacet
  facet normal 0 0.975895 0.218239
    outer loop
      vertex 0 4.04428 -10.4685
      vertex 3 4.07854 -10.6217
      vertex 0 4.07854 -10.6217
    endloop
  endfacet
  facet normal 0 0.940904 0.338674
    outer loop
      vertex 3 4.17556 -10.9203
      vertex 0 4.12236 -10.7725
      vertex 3 4.12236 -10.7725
    endloop
  endfacet
  facet normal 0 0.940904 0.338674
    outer loop
      vertex 0 4.12236 -10.7725
      vertex 3 4.17556 -10.9203
      vertex 0 4.17556 -10.9203
    endloop
  endfacet
  facet normal 0 0.917726 0.397214
    outer loop
      vertex 3 4.23793 -11.0644
      vertex 0 4.17556 -10.9203
      vertex 3 4.17556 -10.9203
    endloop
  endfacet
  facet normal 0 0.917726 0.397214
    outer loop
      vertex 0 4.17556 -10.9203
      vertex 3 4.23793 -11.0644
      vertex 0 4.23793 -11.0644
    endloop
  endfacet
  facet normal 0 0.960279 0.279041
    outer loop
      vertex 3 4.12236 -10.7725
      vertex 0 4.07854 -10.6217
      vertex 3 4.07854 -10.6217
    endloop
  endfacet
  facet normal 0 0.960279 0.279041
    outer loop
      vertex 0 4.07854 -10.6217
      vertex 3 4.12236 -10.7725
      vertex 0 4.12236 -10.7725
    endloop
  endfacet
  facet normal 0 0.750094 0.661331
    outer loop
      vertex 3 4.67758 -11.7114
      vertex 0 4.57372 -11.5936
      vertex 3 4.57372 -11.5936
    endloop
  endfacet
  facet normal 0 0.750094 0.661331
    outer loop
      vertex 0 4.57372 -11.5936
      vertex 3 4.67758 -11.7114
      vertex 0 4.67758 -11.7114
    endloop
  endfacet
  facet normal 0 0.790161 0.6129
    outer loop
      vertex 3 4.57372 -11.5936
      vertex 0 4.47746 -11.4695
      vertex 3 4.47746 -11.4695
    endloop
  endfacet
  facet normal 0 0.790161 0.6129
    outer loop
      vertex 0 4.47746 -11.4695
      vertex 3 4.57372 -11.5936
      vertex 0 4.57372 -11.5936
    endloop
  endfacet
  facet normal 0 0.706948 0.707266
    outer loop
      vertex 3 4.78863 -11.8224
      vertex 0 4.67758 -11.7114
      vertex 3 4.67758 -11.7114
    endloop
  endfacet
  facet normal 0 0.706948 0.707266
    outer loop
      vertex 0 4.67758 -11.7114
      vertex 3 4.78863 -11.8224
      vertex 0 4.78863 -11.8224
    endloop
  endfacet
  facet normal 0 0.860762 0.509008
    outer loop
      vertex 3 4.38918 -11.3396
      vertex 0 4.30923 -11.2044
      vertex 3 4.30923 -11.2044
    endloop
  endfacet
  facet normal 0 0.860762 0.509008
    outer loop
      vertex 0 4.30923 -11.2044
      vertex 3 4.38918 -11.3396
      vertex 0 4.38918 -11.3396
    endloop
  endfacet
  facet normal 0 0.82708 0.562084
    outer loop
      vertex 3 4.47746 -11.4695
      vertex 0 4.38918 -11.3396
      vertex 3 4.38918 -11.3396
    endloop
  endfacet
  facet normal 0 0.82708 0.562084
    outer loop
      vertex 0 4.38918 -11.3396
      vertex 3 4.47746 -11.4695
      vertex 0 4.47746 -11.4695
    endloop
  endfacet
  facet normal -0 0.661443 0.749996
    outer loop
      vertex 0 4.90644 -11.9263
      vertex 3 4.78863 -11.8224
      vertex 3 4.90644 -11.9263
    endloop
  endfacet
  facet normal 0 0.661443 0.749996
    outer loop
      vertex 3 4.78863 -11.8224
      vertex 0 4.90644 -11.9263
      vertex 0 4.78863 -11.8224
    endloop
  endfacet
  facet normal -0 0.5622 0.827001
    outer loop
      vertex 0 5.16043 -12.1108
      vertex 3 5.03054 -12.0225
      vertex 3 5.16043 -12.1108
    endloop
  endfacet
  facet normal 0 0.5622 0.827001
    outer loop
      vertex 3 5.03054 -12.0225
      vertex 0 5.16043 -12.1108
      vertex 0 5.03054 -12.0225
    endloop
  endfacet
  facet normal -0 0.454001 0.891001
    outer loop
      vertex 0 5.43555 -12.2621
      vertex 3 5.29562 -12.1908
      vertex 3 5.43555 -12.2621
    endloop
  endfacet
  facet normal 0 0.454001 0.891001
    outer loop
      vertex 3 5.29562 -12.1908
      vertex 0 5.43555 -12.2621
      vertex 0 5.29562 -12.1908
    endloop
  endfacet
  facet normal -0 0.338735 0.940882
    outer loop
      vertex 0 5.72746 -12.3776
      vertex 3 5.57969 -12.3244
      vertex 3 5.72746 -12.3776
    endloop
  endfacet
  facet normal 0 0.338735 0.940882
    outer loop
      vertex 3 5.57969 -12.3244
      vertex 0 5.72746 -12.3776
      vertex 0 5.57969 -12.3244
    endloop
  endfacet
  facet normal 0 0.995562 -0.0941119
    outer loop
      vertex 3 4.00493 -9.84302
      vertex 0 4.01971 -9.68667
      vertex 3 4.01971 -9.68667
    endloop
  endfacet
  facet normal 0 0.995562 -0.0941119
    outer loop
      vertex 0 4.01971 -9.68667
      vertex 3 4.00493 -9.84302
      vertex 0 4.00493 -9.84302
    endloop
  endfacet
  facet normal 0 0.790161 -0.6129
    outer loop
      vertex 3 4.47746 -8.53054
      vertex 0 4.57372 -8.40644
      vertex 3 4.57372 -8.40644
    endloop
  endfacet
  facet normal 0 0.790161 -0.6129
    outer loop
      vertex 0 4.57372 -8.40644
      vertex 3 4.47746 -8.53054
      vertex 0 4.47746 -8.53054
    endloop
  endfacet
  facet normal 0 0.750122 -0.661299
    outer loop
      vertex 3 4.57372 -8.40644
      vertex 0 4.67758 -8.28863
      vertex 3 4.67758 -8.28863
    endloop
  endfacet
  facet normal 0 0.750122 -0.661299
    outer loop
      vertex 0 4.67758 -8.28863
      vertex 3 4.57372 -8.40644
      vertex 0 4.57372 -8.40644
    endloop
  endfacet
  facet normal 0 0.960284 -0.279024
    outer loop
      vertex 3 4.07854 -9.37827
      vertex 0 4.12236 -9.22746
      vertex 3 4.12236 -9.22746
    endloop
  endfacet
  facet normal 0 0.960284 -0.279024
    outer loop
      vertex 0 4.12236 -9.22746
      vertex 3 4.07854 -9.37827
      vertex 0 4.07854 -9.37827
    endloop
  endfacet
  facet normal 0 0.999507 -0.0313898
    outer loop
      vertex 3 4 -10
      vertex 0 4.00493 -9.84302
      vertex 3 4.00493 -9.84302
    endloop
  endfacet
  facet normal 0 0.999507 -0.0313898
    outer loop
      vertex 0 4.00493 -9.84302
      vertex 3 4 -10
      vertex 0 4 -10
    endloop
  endfacet
  facet normal 0 0.509036 -0.860745
    outer loop
      vertex 0 5.16043 -7.88918
      vertex 3 5.29562 -7.80923
      vertex 3 5.16043 -7.88918
    endloop
  endfacet
  facet normal 0 0.509036 -0.860745
    outer loop
      vertex 3 5.29562 -7.80923
      vertex 0 5.16043 -7.88918
      vertex 0 5.29562 -7.80923
    endloop
  endfacet
  facet normal 0 0.6129 -0.790161
    outer loop
      vertex 0 4.90644 -8.07372
      vertex 3 5.03054 -7.97746
      vertex 3 4.90644 -8.07372
    endloop
  endfacet
  facet normal 0 0.6129 -0.790161
    outer loop
      vertex 3 5.03054 -7.97746
      vertex 0 4.90644 -8.07372
      vertex 0 5.03054 -7.97746
    endloop
  endfacet
  facet normal 0 0.661299 -0.750122
    outer loop
      vertex 0 4.78863 -8.17758
      vertex 3 4.90644 -8.07372
      vertex 3 4.78863 -8.17758
    endloop
  endfacet
  facet normal 0 0.661299 -0.750122
    outer loop
      vertex 3 4.90644 -8.07372
      vertex 0 4.78863 -8.17758
      vertex 0 4.90644 -8.07372
    endloop
  endfacet
  facet normal 0 0.279024 -0.960284
    outer loop
      vertex 0 5.72746 -7.62236
      vertex 3 5.87827 -7.57854
      vertex 3 5.72746 -7.62236
    endloop
  endfacet
  facet normal 0 0.279024 -0.960284
    outer loop
      vertex 3 5.87827 -7.57854
      vertex 0 5.72746 -7.62236
      vertex 0 5.87827 -7.57854
    endloop
  endfacet
  facet normal 0 0.338735 -0.940882
    outer loop
      vertex 0 5.57969 -7.67556
      vertex 3 5.72746 -7.62236
      vertex 3 5.57969 -7.67556
    endloop
  endfacet
  facet normal 0 0.338735 -0.940882
    outer loop
      vertex 3 5.72746 -7.62236
      vertex 0 5.57969 -7.67556
      vertex 0 5.72746 -7.62236
    endloop
  endfacet
  facet normal 0 0.0941119 -0.995562
    outer loop
      vertex 0 6.18667 -7.51971
      vertex 3 6.34302 -7.50493
      vertex 3 6.18667 -7.51971
    endloop
  endfacet
  facet normal 0 0.0941119 -0.995562
    outer loop
      vertex 3 6.34302 -7.50493
      vertex 0 6.18667 -7.51971
      vertex 0 6.34302 -7.50493
    endloop
  endfacet
  facet normal 0 -0.15663 0.987657
    outer loop
      vertex 0 6.96845 -12.4557
      vertex 3 6.81333 -12.4803
      vertex 3 6.96845 -12.4557
    endloop
  endfacet
  facet normal 0 -0.15663 0.987657
    outer loop
      vertex 3 6.81333 -12.4803
      vertex 0 6.96845 -12.4557
      vertex 0 6.81333 -12.4803
    endloop
  endfacet
  facet normal 0 -0.975895 0.218239
    outer loop
      vertex 0 8.92146 -10.6217
      vertex 3 8.95572 -10.4685
      vertex 0 8.95572 -10.4685
    endloop
  endfacet
  facet normal 0 -0.975895 0.218239
    outer loop
      vertex 3 8.95572 -10.4685
      vertex 0 8.92146 -10.6217
      vertex 3 8.92146 -10.6217
    endloop
  endfacet
  facet normal 0 -0.917726 0.397214
    outer loop
      vertex 0 8.76207 -11.0644
      vertex 3 8.82444 -10.9203
      vertex 0 8.82444 -10.9203
    endloop
  endfacet
  facet normal 0 -0.917726 0.397214
    outer loop
      vertex 3 8.82444 -10.9203
      vertex 0 8.76207 -11.0644
      vertex 3 8.76207 -11.0644
    endloop
  endfacet
  facet normal 0 -0.790161 0.6129
    outer loop
      vertex 0 8.42628 -11.5936
      vertex 3 8.52254 -11.4695
      vertex 0 8.52254 -11.4695
    endloop
  endfacet
  facet normal 0 -0.790161 0.6129
    outer loop
      vertex 3 8.52254 -11.4695
      vertex 0 8.42628 -11.5936
      vertex 3 8.42628 -11.5936
    endloop
  endfacet
  facet normal 0 -0.156443 -0.987687
    outer loop
      vertex 0 6.81333 -7.51971
      vertex 3 6.96845 -7.54428
      vertex 3 6.81333 -7.51971
    endloop
  endfacet
  facet normal -0 -0.156443 -0.987687
    outer loop
      vertex 3 6.96845 -7.54428
      vertex 0 6.81333 -7.51971
      vertex 0 6.96845 -7.54428
    endloop
  endfacet
  facet normal 0 -0.790161 -0.6129
    outer loop
      vertex 0 8.52254 -8.53054
      vertex 3 8.42628 -8.40644
      vertex 0 8.42628 -8.40644
    endloop
  endfacet
  facet normal 0 -0.790161 -0.6129
    outer loop
      vertex 3 8.42628 -8.40644
      vertex 0 8.52254 -8.53054
      vertex 3 8.52254 -8.53054
    endloop
  endfacet
  facet normal -0 0.15663 0.987657
    outer loop
      vertex 0 6.18667 -12.4803
      vertex 3 6.03155 -12.4557
      vertex 3 6.18667 -12.4803
    endloop
  endfacet
  facet normal 0 0.15663 0.987657
    outer loop
      vertex 3 6.03155 -12.4557
      vertex 0 6.18667 -12.4803
      vertex 0 6.03155 -12.4557
    endloop
  endfacet
  facet normal 0 0.987699 0.156365
    outer loop
      vertex 3 4.04428 -10.4685
      vertex 0 4.01971 -10.3133
      vertex 3 4.01971 -10.3133
    endloop
  endfacet
  facet normal 0 0.987699 0.156365
    outer loop
      vertex 0 4.01971 -10.3133
      vertex 3 4.04428 -10.4685
      vertex 0 4.04428 -10.4685
    endloop
  endfacet
  facet normal -0 0.612661 0.790346
    outer loop
      vertex 0 5.03054 -12.0225
      vertex 3 4.90644 -11.9263
      vertex 3 5.03054 -12.0225
    endloop
  endfacet
  facet normal 0 0.612661 0.790346
    outer loop
      vertex 3 4.90644 -11.9263
      vertex 0 5.03054 -12.0225
      vertex 0 4.90644 -11.9263
    endloop
  endfacet
  facet normal -0 0.396746 0.917929
    outer loop
      vertex 0 5.57969 -12.3244
      vertex 3 5.43555 -12.2621
      vertex 3 5.57969 -12.3244
    endloop
  endfacet
  facet normal 0 0.396746 0.917929
    outer loop
      vertex 3 5.43555 -12.2621
      vertex 0 5.57969 -12.3244
      vertex 0 5.43555 -12.2621
    endloop
  endfacet
  facet normal -0 0.279494 0.960147
    outer loop
      vertex 0 5.87827 -12.4215
      vertex 3 5.72746 -12.3776
      vertex 3 5.87827 -12.4215
    endloop
  endfacet
  facet normal 0 0.279494 0.960147
    outer loop
      vertex 3 5.72746 -12.3776
      vertex 0 5.87827 -12.4215
      vertex 0 5.72746 -12.3776
    endloop
  endfacet
  facet normal 0 0.891001 -0.454001
    outer loop
      vertex 3 4.23793 -8.93555
      vertex 0 4.30923 -8.79562
      vertex 3 4.30923 -8.79562
    endloop
  endfacet
  facet normal 0 0.891001 -0.454001
    outer loop
      vertex 0 4.30923 -8.79562
      vertex 3 4.23793 -8.93555
      vertex 0 4.23793 -8.93555
    endloop
  endfacet
  facet normal 0 0.987687 -0.156443
    outer loop
      vertex 3 4.01971 -9.68667
      vertex 0 4.04428 -9.53155
      vertex 3 4.04428 -9.53155
    endloop
  endfacet
  facet normal 0 0.987687 -0.156443
    outer loop
      vertex 0 4.04428 -9.53155
      vertex 3 4.01971 -9.68667
      vertex 0 4.01971 -9.68667
    endloop
  endfacet
  facet normal 0 0.999507 0.0313858
    outer loop
      vertex 3 4.00493 -10.157
      vertex 0 4 -10
      vertex 3 4 -10
    endloop
  endfacet
  facet normal 0 0.999507 0.0313858
    outer loop
      vertex 0 4 -10
      vertex 3 4.00493 -10.157
      vertex 0 4.00493 -10.157
    endloop
  endfacet
  facet normal -0 0.0942382 0.99555
    outer loop
      vertex 0 6.34302 -12.4951
      vertex 3 6.18667 -12.4803
      vertex 3 6.34302 -12.4951
    endloop
  endfacet
  facet normal 0 0.0942382 0.99555
    outer loop
      vertex 3 6.18667 -12.4803
      vertex 0 6.34302 -12.4951
      vertex 0 6.18667 -12.4803
    endloop
  endfacet
  facet normal -0 0.217766 0.976001
    outer loop
      vertex 0 6.03155 -12.4557
      vertex 3 5.87827 -12.4215
      vertex 3 6.03155 -12.4557
    endloop
  endfacet
  facet normal 0 0.217766 0.976001
    outer loop
      vertex 3 5.87827 -12.4215
      vertex 0 6.03155 -12.4557
      vertex 0 5.87827 -12.4215
    endloop
  endfacet
  facet normal -0 0 1
    outer loop
      vertex 0 13 3
      vertex 71 0 3
      vertex 71 13 3
    endloop
  endfacet
  facet normal 0 0 1
    outer loop
      vertex 71 0 3
      vertex 0 13 3
      vertex 0 0 3
    endloop
  endfacet
  facet normal 1 -0 0
    outer loop
      vertex 74 0 44
      vertex 74 13 0
      vertex 74 13 44
    endloop
  endfacet
  facet normal 1 0 0
    outer loop
      vertex 74 13 0
      vertex 74 0 44
      vertex 74 0 0
    endloop
  endfacet
  facet normal -1 0 0
    outer loop
      vertex 180 0 -17
      vertex 180 13 44
      vertex 180 13 -17
    endloop
  endfacet
  facet normal -1 -0 0
    outer loop
      vertex 180 13 44
      vertex 180 0 -17
      vertex 180 0 44
    endloop
  endfacet
  facet normal -0 0 1
    outer loop
      vertex 183 13 -17
      vertex 196 0 -17
      vertex 196 13 -17
    endloop
  endfacet
  facet normal 0 0 1
    outer loop
      vertex 196 0 -17
      vertex 183 13 -17
      vertex 183 0 -17
    endloop
  endfacet
  facet normal -0 0 1
    outer loop
      vertex 167 13 -17
      vertex 180 0 -17
      vertex 180 13 -17
    endloop
  endfacet
  facet normal 0 0 1
    outer loop
      vertex 180 0 -17
      vertex 167 13 -17
      vertex 167 0 -17
    endloop
  endfacet
  facet normal -1 0 0
    outer loop
      vertex 167 0 -20
      vertex 167 13 -17
      vertex 167 13 -20
    endloop
  endfacet
  facet normal -1 -0 0
    outer loop
      vertex 167 13 -17
      vertex 167 0 -20
      vertex 167 0 -17
    endloop
  endfacet
  facet normal 1 -0 0
    outer loop
      vertex 196 0 -17
      vertex 196 13 -20
      vertex 196 13 -17
    endloop
  endfacet
  facet normal 1 0 0
    outer loop
      vertex 196 13 -20
      vertex 196 0 -17
      vertex 196 0 -20
    endloop
  endfacet
  facet normal 0 0 -1
    outer loop
      vertex 167 0 -20
      vertex 196 13 -20
      vertex 196 0 -20
    endloop
  endfacet
  facet normal -0 0 -1
    outer loop
      vertex 196 13 -20
      vertex 167 0 -20
      vertex 167 13 -20
    endloop
  endfacet
endsolid OpenSCAD_Model
